<svg id="SvgjsSvg1174" width="1043" height="422" xmlns="http://www.w3.org/2000/svg" version="1.1" xmlns:xlink="http://www.w3.org/1999/xlink" xmlns:svgjs="http://svgjs.com/svgjs"><defs id="SvgjsDefs1175"><marker id="SvgjsMarker1214" markerWidth="14" markerHeight="10" refX="10" refY="5" viewBox="0 0 14 10" orient="auto" markerUnits="userSpaceOnUse" stroke-dasharray="0,0"><path id="SvgjsPath1215" d="M0,0 L14,5 L0,10 L0,0" fill="#323232" stroke="#323232" stroke-width="1"></path></marker><marker id="SvgjsMarker1218" markerWidth="14" markerHeight="10" refX="10" refY="5" viewBox="0 0 14 10" orient="auto" markerUnits="userSpaceOnUse" stroke-dasharray="0,0"><path id="SvgjsPath1219" d="M0,0 L14,5 L0,10 L0,0" fill="#323232" stroke="#323232" stroke-width="1"></path></marker><marker id="SvgjsMarker1222" markerWidth="14" markerHeight="10" refX="10" refY="5" viewBox="0 0 14 10" orient="auto" markerUnits="userSpaceOnUse" stroke-dasharray="0,0"><path id="SvgjsPath1223" d="M0,0 L14,5 L0,10 L0,0" fill="#323232" stroke="#323232" stroke-width="1"></path></marker><marker id="SvgjsMarker1226" markerWidth="14" markerHeight="10" refX="10" refY="5" viewBox="0 0 14 10" orient="auto" markerUnits="userSpaceOnUse" stroke-dasharray="0,0"><path id="SvgjsPath1227" d="M0,0 L14,5 L0,10 L0,0" fill="#323232" stroke="#323232" stroke-width="1"></path></marker><marker id="SvgjsMarker1230" markerWidth="14" markerHeight="10" refX="10" refY="5" viewBox="0 0 14 10" orient="auto" markerUnits="userSpaceOnUse" stroke-dasharray="0,0"><path id="SvgjsPath1231" d="M0,0 L14,5 L0,10 L0,0" fill="#323232" stroke="#323232" stroke-width="1"></path></marker><marker id="SvgjsMarker1264" markerWidth="14" markerHeight="10" refX="10" refY="5" viewBox="0 0 14 10" orient="auto" markerUnits="userSpaceOnUse" stroke-dasharray="0,0"><path id="SvgjsPath1265" d="M0,0 L14,5 L0,10 L0,0" fill="#323232" stroke="#323232" stroke-width="1"></path></marker><marker id="SvgjsMarker1268" markerWidth="14" markerHeight="10" refX="10" refY="5" viewBox="0 0 14 10" orient="auto" markerUnits="userSpaceOnUse" stroke-dasharray="0,0"><path id="SvgjsPath1269" d="M0,0 L14,5 L0,10 L0,0" fill="#323232" stroke="#323232" stroke-width="1"></path></marker><marker id="SvgjsMarker1272" markerWidth="14" markerHeight="10" refX="10" refY="5" viewBox="0 0 14 10" orient="auto" markerUnits="userSpaceOnUse" stroke-dasharray="0,0"><path id="SvgjsPath1273" d="M0,0 L14,5 L0,10 L0,0" fill="#323232" stroke="#323232" stroke-width="1"></path></marker><marker id="SvgjsMarker1276" markerWidth="14" markerHeight="10" refX="10" refY="5" viewBox="0 0 14 10" orient="auto" markerUnits="userSpaceOnUse" stroke-dasharray="0,0"><path id="SvgjsPath1277" d="M0,0 L14,5 L0,10 L0,0" fill="#323232" stroke="#323232" stroke-width="1"></path></marker><marker id="SvgjsMarker1286" markerWidth="14" markerHeight="10" refX="10" refY="5" viewBox="0 0 14 10" orient="auto" markerUnits="userSpaceOnUse" stroke-dasharray="0,0"><path id="SvgjsPath1287" d="M0,0 L14,5 L0,10 L0,0" fill="#323232" stroke="#323232" stroke-width="1"></path></marker><marker id="SvgjsMarker1318" markerWidth="14" markerHeight="10" refX="10" refY="5" viewBox="0 0 14 10" orient="auto" markerUnits="userSpaceOnUse" stroke-dasharray="0,0"><path id="SvgjsPath1319" d="M0,0 L14,5 L0,10 L0,0" fill="#323232" stroke="#323232" stroke-width="1"></path></marker><marker id="SvgjsMarker1322" markerWidth="14" markerHeight="10" refX="10" refY="5" viewBox="0 0 14 10" orient="auto" markerUnits="userSpaceOnUse" stroke-dasharray="0,0"><path id="SvgjsPath1323" d="M0,0 L14,5 L0,10 L0,0" fill="#323232" stroke="#323232" stroke-width="1"></path></marker><marker id="SvgjsMarker1326" markerWidth="14" markerHeight="10" refX="10" refY="5" viewBox="0 0 14 10" orient="auto" markerUnits="userSpaceOnUse" stroke-dasharray="0,0"><path id="SvgjsPath1327" d="M0,0 L14,5 L0,10 L0,0" fill="#323232" stroke="#323232" stroke-width="1"></path></marker><marker id="SvgjsMarker1330" markerWidth="14" markerHeight="10" refX="10" refY="5" viewBox="0 0 14 10" orient="auto" markerUnits="userSpaceOnUse" stroke-dasharray="0,0"><path id="SvgjsPath1331" d="M0,0 L14,5 L0,10 L0,0" fill="#323232" stroke="#323232" stroke-width="1"></path></marker><marker id="SvgjsMarker1340" markerWidth="14" markerHeight="10" refX="10" refY="5" viewBox="0 0 14 10" orient="auto" markerUnits="userSpaceOnUse" stroke-dasharray="0,0"><path id="SvgjsPath1341" d="M0,0 L14,5 L0,10 L0,0" fill="#323232" stroke="#323232" stroke-width="1"></path></marker></defs><g id="SvgjsG1176" transform="translate(25,44)"><path id="SvgjsPath1177" d="M 0 4Q 0 0 4 0L 114 0Q 118 0 118 4L 118 50Q 118 54 114 54L 4 54Q 0 54 0 50Z" stroke="rgba(33,41,48,1)" stroke-width="2" fill-opacity="1" fill="#ffffff"></path><g id="SvgjsG1178"><text id="SvgjsText1179" font-family="微软雅黑" text-anchor="middle" font-size="13px" width="98px" fill="#323232" font-weight="400" align="middle" lineHeight="125%" anchor="middle" family="微软雅黑" size="13px" weight="400" font-style="" opacity="1" y="16.375" transform="rotate(0)"><tspan id="SvgjsTspan1180" dy="16" x="59"><tspan id="SvgjsTspan1181" style="text-decoration:;">m.diyring.cc</tspan></tspan></text></g></g><g id="SvgjsG1182" transform="translate(25,114)"><path id="SvgjsPath1183" d="M 0 4Q 0 0 4 0L 114 0Q 118 0 118 4L 118 50Q 118 54 114 54L 4 54Q 0 54 0 50Z" stroke="rgba(33,41,48,1)" stroke-width="2" fill-opacity="1" fill="#ffffff"></path><g id="SvgjsG1184"><text id="SvgjsText1185" font-family="微软雅黑" text-anchor="middle" font-size="13px" width="98px" fill="#323232" font-weight="400" align="middle" lineHeight="125%" anchor="middle" family="微软雅黑" size="13px" weight="400" font-style="" opacity="1" y="16.375" transform="rotate(0)"><tspan id="SvgjsTspan1186" dy="16" x="59"><tspan id="SvgjsTspan1187" style="text-decoration:;">iring.diyring.cc</tspan></tspan></text></g></g><g id="SvgjsG1188" transform="translate(25,184)"><path id="SvgjsPath1189" d="M 0 4Q 0 0 4 0L 114 0Q 118 0 118 4L 118 50Q 118 54 114 54L 4 54Q 0 54 0 50Z" stroke="rgba(33,41,48,1)" stroke-width="2" fill-opacity="1" fill="#ffffff"></path><g id="SvgjsG1190"><text id="SvgjsText1191" font-family="微软雅黑" text-anchor="middle" font-size="13px" width="98px" fill="#323232" font-weight="400" align="middle" lineHeight="125%" anchor="middle" family="微软雅黑" size="13px" weight="400" font-style="" opacity="1" y="16.375" transform="rotate(0)"><tspan id="SvgjsTspan1192" dy="16" x="59"><tspan id="SvgjsTspan1193" style="text-decoration:;">oppo.diyring.cc</tspan></tspan></text></g></g><g id="SvgjsG1194" transform="translate(25,254)"><path id="SvgjsPath1195" d="M 0 4Q 0 0 4 0L 114 0Q 118 0 118 4L 118 50Q 118 54 114 54L 4 54Q 0 54 0 50Z" stroke="rgba(33,41,48,1)" stroke-width="2" fill-opacity="1" fill="#ffffff"></path><g id="SvgjsG1196"><text id="SvgjsText1197" font-family="微软雅黑" text-anchor="middle" font-size="13px" width="98px" fill="#323232" font-weight="400" align="middle" lineHeight="125%" anchor="middle" family="微软雅黑" size="13px" weight="400" font-style="" opacity="1" y="16.375" transform="rotate(0)"><tspan id="SvgjsTspan1198" dy="16" x="59"><tspan id="SvgjsTspan1199" style="text-decoration:;">vivo.diyring.cc</tspan></tspan></text></g></g><g id="SvgjsG1200" transform="translate(25,324)"><path id="SvgjsPath1201" d="M 0 4Q 0 0 4 0L 114 0Q 118 0 118 4L 118 50Q 118 54 114 54L 4 54Q 0 54 0 50Z" stroke="rgba(33,41,48,1)" stroke-width="2" fill-opacity="1" fill="#ffffff"></path><g id="SvgjsG1202"><text id="SvgjsText1203" font-family="微软雅黑" text-anchor="middle" font-size="13px" width="98px" fill="#323232" font-weight="400" align="middle" lineHeight="125%" anchor="middle" family="微软雅黑" size="13px" weight="400" font-style="" opacity="1" y="16.375" transform="rotate(0)"><tspan id="SvgjsTspan1204" dy="16" x="59"><tspan id="SvgjsTspan1205" style="text-decoration:;">……</tspan></tspan></text></g></g><g id="SvgjsG1206" transform="translate(273,184)"><path id="SvgjsPath1207" d="M 0 4Q 0 0 4 0L 92 0Q 96 0 96 4L 96 50Q 96 54 92 54L 4 54Q 0 54 0 50Z" stroke="rgba(33,41,48,1)" stroke-width="2" fill-opacity="1" fill="#ffffff"></path><g id="SvgjsG1208"><text id="SvgjsText1209" font-family="微软雅黑" text-anchor="middle" font-size="13px" width="76px" fill="#323232" font-weight="400" align="middle" lineHeight="125%" anchor="middle" family="微软雅黑" size="13px" weight="400" font-style="" opacity="1" y="16.375" transform="rotate(0)"><tspan id="SvgjsTspan1210" dy="16" x="48"><tspan id="SvgjsTspan1211" style="text-decoration:;">order sdk</tspan></tspan></text></g></g><g id="SvgjsG1212"><path id="SvgjsPath1213" d="M143.99292388370617 71.11875252067168C 219.41989269817122 71 196.58010730182878 211 269.42547401865784 210.57249092558197" stroke="#323232" stroke-width="2" fill="none" marker-end="url(#SvgjsMarker1214)"></path></g><g id="SvgjsG1216"><path id="SvgjsPath1217" d="M143.9953215895339 141.0966174591248C 202.0592922409336 141 213.9407077590664 211 269.416842277678 210.65217714715084" stroke="#323232" stroke-width="2" fill="none" marker-end="url(#SvgjsMarker1218)"></path></g><g id="SvgjsG1220"><path id="SvgjsPath1221" d="M144 211C 195 211 221 211 269.4 211" stroke="#323232" stroke-width="2" fill="none" marker-end="url(#SvgjsMarker1222)"></path></g><g id="SvgjsG1224"><path id="SvgjsPath1225" d="M143.9953215895339 280.9033825408752C 202.0592922409336 281 213.9407077590664 211 269.416842277678 211.34782285284922" stroke="#323232" stroke-width="2" fill="none" marker-end="url(#SvgjsMarker1226)"></path></g><g id="SvgjsG1228"><path id="SvgjsPath1229" d="M143.99292388370617 350.88124747932835C 219.41989269817122 351 196.58010730182878 211 269.42547401865784 211.42750907441803" stroke="#323232" stroke-width="2" fill="none" marker-end="url(#SvgjsMarker1230)"></path></g><g id="SvgjsG1232" transform="translate(480,25)"><path id="SvgjsPath1233" d="M 0 4Q 0 0 4 0L 209 0Q 213 0 213 4L 213 368Q 213 372 209 372L 4 372Q 0 372 0 368Z" stroke="rgba(33,41,48,1)" stroke-width="2" fill-opacity="1" fill="#ffffff"></path><g id="SvgjsG1234"><text id="SvgjsText1235" font-family="微软雅黑" text-anchor="middle" font-size="13px" width="193px" fill="#323232" font-weight="400" align="top" lineHeight="125%" anchor="middle" family="微软雅黑" size="13px" weight="400" font-style="" opacity="1" y="-2.625" transform="rotate(0)"><tspan id="SvgjsTspan1236" dy="16" x="106.5"><tspan id="SvgjsTspan1237" style="text-decoration:;">众多webjs页面</tspan></tspan></text></g></g><g id="SvgjsG1238" transform="translate(525,59)"><path id="SvgjsPath1239" d="M 0 4Q 0 0 4 0L 114 0Q 118 0 118 4L 118 50Q 118 54 114 54L 4 54Q 0 54 0 50Z" stroke="rgba(33,41,48,1)" stroke-width="2" fill-opacity="1" fill="#ffffff"></path><g id="SvgjsG1240"><text id="SvgjsText1241" font-family="微软雅黑" text-anchor="middle" font-size="13px" width="98px" fill="#323232" font-weight="400" align="middle" lineHeight="125%" anchor="middle" family="微软雅黑" size="13px" weight="400" font-style="" opacity="1" y="16.375" transform="rotate(0)"><tspan id="SvgjsTspan1242" dy="16" x="59"><tspan id="SvgjsTspan1243" style="text-decoration:;">咪咕5+6计费</tspan></tspan></text></g></g><g id="SvgjsG1244" transform="translate(525,125)"><path id="SvgjsPath1245" d="M 0 4Q 0 0 4 0L 114 0Q 118 0 118 4L 118 50Q 118 54 114 54L 4 54Q 0 54 0 50Z" stroke="rgba(33,41,48,1)" stroke-width="2" fill-opacity="1" fill="#ffffff"></path><g id="SvgjsG1246"><text id="SvgjsText1247" font-family="微软雅黑" text-anchor="middle" font-size="13px" width="98px" fill="#323232" font-weight="400" align="middle" lineHeight="125%" anchor="middle" family="微软雅黑" size="13px" weight="400" font-style="" opacity="1" y="16.375" transform="rotate(0)"><tspan id="SvgjsTspan1248" dy="16" x="59"><tspan id="SvgjsTspan1249" style="text-decoration:;">咪咕2+6计费</tspan></tspan></text></g></g><g id="SvgjsG1250" transform="translate(525,191)"><path id="SvgjsPath1251" d="M 0 4Q 0 0 4 0L 114 0Q 118 0 118 4L 118 50Q 118 54 114 54L 4 54Q 0 54 0 50Z" stroke="rgba(33,41,48,1)" stroke-width="2" fill-opacity="1" fill="#ffffff"></path><g id="SvgjsG1252"><text id="SvgjsText1253" font-family="微软雅黑" text-anchor="middle" font-size="13px" width="98px" fill="#323232" font-weight="400" align="middle" lineHeight="125%" anchor="middle" family="微软雅黑" size="13px" weight="400" font-style="" opacity="1" y="16.375" transform="rotate(0)"><tspan id="SvgjsTspan1254" dy="16" x="59"><tspan id="SvgjsTspan1255" style="text-decoration:;">联通</tspan></tspan></text></g></g><g id="SvgjsG1256" transform="translate(525,257)"><path id="SvgjsPath1257" d="M 0 4Q 0 0 4 0L 114 0Q 118 0 118 4L 118 50Q 118 54 114 54L 4 54Q 0 54 0 50Z" stroke="rgba(33,41,48,1)" stroke-width="2" fill-opacity="1" fill="#ffffff"></path><g id="SvgjsG1258"><text id="SvgjsText1259" font-family="微软雅黑" text-anchor="middle" font-size="13px" width="98px" fill="#323232" font-weight="400" align="middle" lineHeight="125%" anchor="middle" family="微软雅黑" size="13px" weight="400" font-style="" opacity="1" y="16.375" transform="rotate(0)"><tspan id="SvgjsTspan1260" dy="16" x="59"><tspan id="SvgjsTspan1261" style="text-decoration:;">电信</tspan></tspan></text></g></g><g id="SvgjsG1262"><path id="SvgjsPath1263" d="M369.99543473383665 210.9045553004534C 448.9609904891129 211 445.0390095108871 86 521.416434958188 86.3436009183678" stroke="#323232" stroke-width="2" fill="none" marker-end="url(#SvgjsMarker1264)"></path></g><g id="SvgjsG1266"><path id="SvgjsPath1267" d="M369.9979928600959 210.93667345582145C 435.71371673051954 211 458.28628326948046 152 521.4072257036547 152.2279755590427" stroke="#323232" stroke-width="2" fill="none" marker-end="url(#SvgjsMarker1268)"></path></g><g id="SvgjsG1270"><path id="SvgjsPath1271" d="M369.9999640348598 211.00848109586525C 431.46278892268583 211 462.53721107731417 218 521.400129474505 217.969468054885" stroke="#323232" stroke-width="2" fill="none" marker-end="url(#SvgjsMarker1272)"></path></g><g id="SvgjsG1274"><path id="SvgjsPath1275" d="M369.99727226399216 211.07381078154253C 437.8941216650594 211 456.1058783349406 284 521.4098198496282 283.73428118644694" stroke="#323232" stroke-width="2" fill="none" marker-end="url(#SvgjsMarker1276)"></path></g><g id="SvgjsG1278" transform="translate(525,323)"><path id="SvgjsPath1279" d="M 0 4Q 0 0 4 0L 114 0Q 118 0 118 4L 118 50Q 118 54 114 54L 4 54Q 0 54 0 50Z" stroke="rgba(33,41,48,1)" stroke-width="2" fill-opacity="1" fill="#ffffff"></path><g id="SvgjsG1280"><text id="SvgjsText1281" font-family="微软雅黑" text-anchor="middle" font-size="13px" width="98px" fill="#323232" font-weight="400" align="middle" lineHeight="125%" anchor="middle" family="微软雅黑" size="13px" weight="400" font-style="" opacity="1" y="16.375" transform="rotate(0)"><tspan id="SvgjsTspan1282" dy="16" x="59"><tspan id="SvgjsTspan1283" style="text-decoration:;">……</tspan></tspan></text></g></g><g id="SvgjsG1284"><path id="SvgjsPath1285" d="M369.9952327893752 211.09752791883562C 452.5770303372883 211 441.4229696627117 350 521.4171619582492 349.64889949219184" stroke="#323232" stroke-width="2" fill="none" marker-end="url(#SvgjsMarker1286)"></path></g><g id="SvgjsG1288" transform="translate(316,79)"><path id="SvgjsPath1289" d="M 0 0L 126 0L 142 16L 142 65L 0 65L 0 0Z" stroke="none" fill-opacity="1" fill="#fff7bc"></path><path id="SvgjsPath1290" d="M 126 0L 126 16L 142 16Z" stroke="none" fill-opacity="1" fill="#e4d089"></path><path id="SvgjsPath1291" d="M 0 0L 126 0L 142 16L 142 65L 0 65L 0 0Z" stroke="none" fill="none"></path><g id="SvgjsG1292"><text id="SvgjsText1293" font-family="微软雅黑" text-anchor="start" font-size="13px" width="122px" fill="#323232" font-weight="400" align="middle" lineHeight="125%" anchor="start" family="微软雅黑" size="13px" weight="400" font-style="" opacity="1" y="13.375" transform="rotate(0)"><tspan id="SvgjsTspan1294" dy="16" x="10"><tspan id="SvgjsTspan1295" style="text-decoration:;">消息通信：</tspan></tspan><tspan id="SvgjsTspan1296" dy="16" x="10"><tspan id="SvgjsTspan1297" style="text-decoration:;">Post Message API</tspan></tspan></text></g></g><g id="SvgjsG1298" transform="translate(751,61.75)"><path id="SvgjsPath1299" d="M 0 4Q 0 0 4 0L 103 0Q 107 0 107 4L 107 50Q 107 54 103 54L 4 54Q 0 54 0 50Z" stroke="rgba(33,41,48,1)" stroke-width="2" fill-opacity="1" fill="#ffffff"></path><g id="SvgjsG1300"><text id="SvgjsText1301" font-family="微软雅黑" text-anchor="middle" font-size="13px" width="87px" fill="#323232" font-weight="400" align="middle" lineHeight="125%" anchor="middle" family="微软雅黑" size="13px" weight="400" font-style="" opacity="1" y="16.375" transform="rotate(0)"><tspan id="SvgjsTspan1302" dy="16" x="53.5"><tspan id="SvgjsTspan1303" style="text-decoration:;">咪咕js-sdk</tspan></tspan></text></g></g><g id="SvgjsG1304" transform="translate(751,148)"><path id="SvgjsPath1305" d="M 0 4Q 0 0 4 0L 103 0Q 107 0 107 4L 107 50Q 107 54 103 54L 4 54Q 0 54 0 50Z" stroke="rgba(33,41,48,1)" stroke-width="2" fill-opacity="1" fill="#ffffff"></path><g id="SvgjsG1306"><text id="SvgjsText1307" font-family="微软雅黑" text-anchor="middle" font-size="13px" width="87px" fill="#323232" font-weight="400" align="middle" lineHeight="125%" anchor="middle" family="微软雅黑" size="13px" weight="400" font-style="" opacity="1" y="16.375" transform="rotate(0)"><tspan id="SvgjsTspan1308" dy="16" x="53.5"><tspan id="SvgjsTspan1309" style="text-decoration:;">联通订购页面</tspan></tspan></text></g></g><g id="SvgjsG1310" transform="translate(751,234.25)"><path id="SvgjsPath1311" d="M 0 4Q 0 0 4 0L 103 0Q 107 0 107 4L 107 50Q 107 54 103 54L 4 54Q 0 54 0 50Z" stroke="rgba(33,41,48,1)" stroke-width="2" fill-opacity="1" fill="#ffffff"></path><g id="SvgjsG1312"><text id="SvgjsText1313" font-family="微软雅黑" text-anchor="middle" font-size="13px" width="87px" fill="#323232" font-weight="400" align="middle" lineHeight="125%" anchor="middle" family="微软雅黑" size="13px" weight="400" font-style="" opacity="1" y="16.375" transform="rotate(0)"><tspan id="SvgjsTspan1314" dy="16" x="53.5"><tspan id="SvgjsTspan1315" style="text-decoration:;">电信订购页面</tspan></tspan></text></g></g><g id="SvgjsG1316"><path id="SvgjsPath1317" d="M643.99997619258 86.00690030965484C 686.2140023603462 86 707.7859976396538 88.75 747.4000857067123 88.72515888524259" stroke="#323232" stroke-width="2" fill="none" marker-end="url(#SvgjsMarker1318)"></path></g><g id="SvgjsG1320"><path id="SvgjsPath1321" d="M643.9925600658917 151.8782440326019C 693.0632599817471 152 700.9367400182529 88.75 747.4267837627898 89.18832148263314" stroke="#323232" stroke-width="2" fill="none" marker-end="url(#SvgjsMarker1322)"></path></g><g id="SvgjsG1324"><path id="SvgjsPath1325" d="M643.995509878112 217.90534228725835C 689.49817200708 218 704.50182799292 175 747.4161644387968 175.3407677658699" stroke="#323232" stroke-width="2" fill="none" marker-end="url(#SvgjsMarker1326)"></path></g><g id="SvgjsG1328"><path id="SvgjsPath1329" d="M643.9984887631509 283.94504374593134C 687.148046389393 284 706.851953610607 261.25 747.4054404526565 261.4478425146473" stroke="#323232" stroke-width="2" fill="none" marker-end="url(#SvgjsMarker1330)"></path></g><g id="SvgjsG1332" transform="translate(751,320.25)"><path id="SvgjsPath1333" d="M 0 4Q 0 0 4 0L 103 0Q 107 0 107 4L 107 50Q 107 54 103 54L 4 54Q 0 54 0 50Z" stroke="rgba(33,41,48,1)" stroke-width="2" fill-opacity="1" fill="#ffffff"></path><g id="SvgjsG1334"><text id="SvgjsText1335" font-family="微软雅黑" text-anchor="middle" font-size="13px" width="87px" fill="#323232" font-weight="400" align="middle" lineHeight="125%" anchor="middle" family="微软雅黑" size="13px" weight="400" font-style="" opacity="1" y="16.375" transform="rotate(0)"><tspan id="SvgjsTspan1336" dy="16" x="53.5"><tspan id="SvgjsTspan1337" style="text-decoration:;">其它</tspan></tspan></text></g></g><g id="SvgjsG1338"><path id="SvgjsPath1339" d="M643.99997619258 349.99309969034516C 686.2140023603462 350 707.7859976396538 347.25 747.4000857067123 347.2748411147574" stroke="#323232" stroke-width="2" fill="none" marker-end="url(#SvgjsMarker1340)"></path></g><g id="SvgjsG1342" transform="translate(867,50.25)"><path id="SvgjsPath1343" d="M 0 0L 135 0L 151 16L 151 77L 0 77L 0 0Z" stroke="none" fill-opacity="1" fill="#fff7bc"></path><path id="SvgjsPath1344" d="M 135 0L 135 16L 151 16Z" stroke="none" fill-opacity="1" fill="#e4d089"></path><path id="SvgjsPath1345" d="M 0 0L 135 0L 151 16L 151 77L 0 77L 0 0Z" stroke="none" fill="none"></path><g id="SvgjsG1346"><text id="SvgjsText1347" font-family="微软雅黑" text-anchor="start" font-size="13px" width="131px" fill="#323232" font-weight="400" align="middle" lineHeight="125%" anchor="start" family="微软雅黑" size="13px" weight="400" font-style="" opacity="1" y="3.375" transform="rotate(0)"><tspan id="SvgjsTspan1348" dy="16" x="10"><tspan id="SvgjsTspan1349" style="text-decoration:;">2+6计费与5+6计费的</tspan></tspan><tspan id="SvgjsTspan1350" dy="16" x="10"><tspan id="SvgjsTspan1351" style="text-decoration:;">API不同，这里统称“咪</tspan></tspan><tspan id="SvgjsTspan1352" dy="16" x="10"><tspan id="SvgjsTspan1353" style="text-decoration:;">咕js-sdk”，但实际上</tspan></tspan><tspan id="SvgjsTspan1354" dy="16" x="10"><tspan id="SvgjsTspan1355" style="text-decoration:;">js文件是不同的</tspan></tspan></text></g></g><g id="SvgjsG1356" transform="translate(867,217)"><path id="SvgjsPath1357" d="M 0 0L 135 0L 151 16L 151 82.75L 0 82.75L 0 0Z" stroke="none" fill-opacity="1" fill="#fff7bc"></path><path id="SvgjsPath1358" d="M 135 0L 135 16L 151 16Z" stroke="none" fill-opacity="1" fill="#e4d089"></path><path id="SvgjsPath1359" d="M 0 0L 135 0L 151 16L 151 82.75L 0 82.75L 0 0Z" stroke="none" fill="none"></path><g id="SvgjsG1360"><text id="SvgjsText1361" font-family="微软雅黑" text-anchor="start" font-size="13px" width="131px" fill="#323232" font-weight="400" align="middle" lineHeight="125%" anchor="start" family="微软雅黑" size="13px" weight="400" font-style="" opacity="1" y="6.25" transform="rotate(0)"><tspan id="SvgjsTspan1362" dy="16" x="10"><tspan id="SvgjsTspan1363" style="text-decoration:;">电信有两套接入方案，</tspan></tspan><tspan id="SvgjsTspan1364" dy="16" x="10"><tspan id="SvgjsTspan1365" style="text-decoration:;">v2版本是接口+用户验</tspan></tspan><tspan id="SvgjsTspan1366" dy="16" x="10"><tspan id="SvgjsTspan1367" style="text-decoration:;">证码，v3是直接跳转</tspan></tspan><tspan id="SvgjsTspan1368" dy="16" x="10"><tspan id="SvgjsTspan1369" style="text-decoration:;">局方页面</tspan></tspan></text></g></g></svg>