<svg id="SvgjsSvg1001" width="401" height="306" xmlns="http://www.w3.org/2000/svg" version="1.1" xmlns:xlink="http://www.w3.org/1999/xlink" xmlns:svgjs="http://svgjs.com/svgjs"><defs id="SvgjsDefs1002"></defs><g id="SvgjsG1008" transform="translate(121,25)"><path id="SvgjsPath1009" d="M 0 4Q 0 0 4 0L 155 0Q 159 0 159 4L 159 50Q 159 54 155 54L 4 54Q 0 54 0 50Z" stroke="rgba(33,41,48,1)" stroke-width="2" fill-opacity="1" fill="#7bd144"></path><g id="SvgjsG1010"><text id="SvgjsText1011" font-family="微软雅黑" text-anchor="middle" font-size="13px" width="139px" fill="#323232" font-weight="400" align="middle" lineHeight="125%" anchor="middle" family="微软雅黑" size="13px" weight="400" font-style="" opacity="1" y="16.375" transform="rotate(0)"><tspan id="SvgjsTspan1012" dy="16" x="79.5"><tspan id="SvgjsTspan1013" style="text-decoration:;">VariableDeclaration</tspan></tspan></text></g></g><g id="SvgjsG1014"><path id="SvgjsPath1015" d="M200.5 80L200.5 98.5L200.5 98.5L200.5 117" stroke="#323232" stroke-width="2" fill="none"></path></g><g id="SvgjsG1016" transform="translate(121,118)"><path id="SvgjsPath1017" d="M 0 4Q 0 0 4 0L 155 0Q 159 0 159 4L 159 50Q 159 54 155 54L 4 54Q 0 54 0 50Z" stroke="rgba(33,41,48,1)" stroke-width="2" fill-opacity="1" fill="#7bd144"></path><g id="SvgjsG1018"><text id="SvgjsText1019" font-family="微软雅黑" text-anchor="middle" font-size="13px" width="139px" fill="#323232" font-weight="400" align="middle" lineHeight="125%" anchor="middle" family="微软雅黑" size="13px" weight="400" font-style="" opacity="1" y="16.375" transform="rotate(0)"><tspan id="SvgjsTspan1020" dy="16" x="79.5"><tspan id="SvgjsTspan1021" style="text-decoration:;">VariableDeclarator</tspan></tspan></text></g></g><g id="SvgjsG1022" transform="translate(25,227)"><path id="SvgjsPath1023" d="M 0 4Q 0 0 4 0L 155 0Q 159 0 159 4L 159 50Q 159 54 155 54L 4 54Q 0 54 0 50Z" stroke="rgba(33,41,48,1)" stroke-width="2" fill-opacity="1" fill="#7bd144"></path><g id="SvgjsG1024"><text id="SvgjsText1025" font-family="微软雅黑" text-anchor="middle" font-size="13px" width="139px" fill="#323232" font-weight="400" align="middle" lineHeight="125%" anchor="middle" family="微软雅黑" size="13px" weight="400" font-style="" opacity="1" y="16.375" transform="rotate(0)"><tspan id="SvgjsTspan1026" dy="16" x="79.5"><tspan id="SvgjsTspan1027" style="text-decoration:;">Identifier</tspan></tspan></text></g></g><g id="SvgjsG1028" transform="translate(217,227)"><path id="SvgjsPath1029" d="M 0 4Q 0 0 4 0L 155 0Q 159 0 159 4L 159 50Q 159 54 155 54L 4 54Q 0 54 0 50Z" stroke="rgba(33,41,48,1)" stroke-width="2" fill-opacity="1" fill="#7bd144"></path><g id="SvgjsG1030"><text id="SvgjsText1031" font-family="微软雅黑" text-anchor="middle" font-size="13px" width="139px" fill="#323232" font-weight="400" align="middle" lineHeight="125%" anchor="middle" family="微软雅黑" size="13px" weight="400" font-style="" opacity="1" y="16.375" transform="rotate(0)"><tspan id="SvgjsTspan1032" dy="16" x="79.5"><tspan id="SvgjsTspan1033" style="text-decoration:;">StringLiteral</tspan></tspan></text></g></g><g id="SvgjsG1034"><path id="SvgjsPath1035" d="M199.63231361270687 172.49711199272008L105.36768638729319 226.50288800727992" stroke="#323232" stroke-width="2" fill="none"></path></g><g id="SvgjsG1036"><path id="SvgjsPath1037" d="M201.36768638729313 172.49711199272008L295.63231361270687 226.50288800727992" stroke="#323232" stroke-width="2" fill="none"></path></g></svg>