<svg id="SvgjsSvg1001" width="501" height="386" xmlns="http://www.w3.org/2000/svg" version="1.1" xmlns:xlink="http://www.w3.org/1999/xlink" xmlns:svgjs="http://svgjs.com/svgjs"><defs id="SvgjsDefs1002"><marker id="SvgjsMarker1040" markerWidth="14" markerHeight="10" refX="10" refY="5" viewBox="0 0 14 10" orient="auto" markerUnits="userSpaceOnUse" stroke-dasharray="0,0"><path id="SvgjsPath1041" d="M0,0 L14,5 L0,10 L0,0" fill="#323232" stroke="#323232" stroke-width="1"></path></marker><marker id="SvgjsMarker1044" markerWidth="14" markerHeight="10" refX="10" refY="5" viewBox="0 0 14 10" orient="auto" markerUnits="userSpaceOnUse" stroke-dasharray="0,0"><path id="SvgjsPath1045" d="M0,0 L14,5 L0,10 L0,0" fill="#323232" stroke="#323232" stroke-width="1"></path></marker><marker id="SvgjsMarker1048" markerWidth="14" markerHeight="10" refX="10" refY="5" viewBox="0 0 14 10" orient="auto" markerUnits="userSpaceOnUse" stroke-dasharray="0,0"><path id="SvgjsPath1049" d="M0,0 L14,5 L0,10 L0,0" fill="#323232" stroke="#323232" stroke-width="1"></path></marker><marker id="SvgjsMarker1052" markerWidth="14" markerHeight="10" refX="10" refY="5" viewBox="0 0 14 10" orient="auto" markerUnits="userSpaceOnUse" stroke-dasharray="0,0"><path id="SvgjsPath1053" d="M0,0 L14,5 L0,10 L0,0" fill="#323232" stroke="#323232" stroke-width="1"></path></marker><marker id="SvgjsMarker1056" markerWidth="14" markerHeight="10" refX="10" refY="5" viewBox="0 0 14 10" orient="auto" markerUnits="userSpaceOnUse" stroke-dasharray="0,0"><path id="SvgjsPath1057" d="M0,0 L14,5 L0,10 L0,0" fill="#e74f4c" stroke="#e74f4c" stroke-width="1"></path></marker><marker id="SvgjsMarker1060" markerWidth="14" markerHeight="10" refX="10" refY="5" viewBox="0 0 14 10" orient="auto" markerUnits="userSpaceOnUse" stroke-dasharray="0,0"><path id="SvgjsPath1061" d="M0,0 L14,5 L0,10 L0,0" fill="#e74f4c" stroke="#e74f4c" stroke-width="1"></path></marker><marker id="SvgjsMarker1064" markerWidth="14" markerHeight="10" refX="10" refY="5" viewBox="0 0 14 10" orient="auto" markerUnits="userSpaceOnUse" stroke-dasharray="0,0"><path id="SvgjsPath1065" d="M0,0 L14,5 L0,10 L0,0" fill="#e74f4c" stroke="#e74f4c" stroke-width="1"></path></marker><marker id="SvgjsMarker1068" markerWidth="14" markerHeight="10" refX="10" refY="5" viewBox="0 0 14 10" orient="auto" markerUnits="userSpaceOnUse" stroke-dasharray="0,0"><path id="SvgjsPath1069" d="M0,0 L14,5 L0,10 L0,0" fill="#e74f4c" stroke="#e74f4c" stroke-width="1"></path></marker></defs><g id="SvgjsG1008" transform="translate(236,86)"><path id="SvgjsPath1009" d="M 0 4Q 0 0 4 0L 128 0Q 132 0 132 4L 132 50Q 132 54 128 54L 4 54Q 0 54 0 50Z" stroke="rgba(33,41,48,1)" stroke-width="2" fill-opacity="1" fill="#7bd144"></path><g id="SvgjsG1010"><text id="SvgjsText1011" font-family="微软雅黑" text-anchor="middle" font-size="13px" width="112px" fill="#323232" font-weight="400" align="middle" lineHeight="125%" anchor="middle" family="微软雅黑" size="13px" weight="400" font-style="" opacity="1" y="16.375" transform="rotate(0)"><tspan id="SvgjsTspan1012" dy="16" x="66"><tspan id="SvgjsTspan1013" style="text-decoration:;">BinaryExpression</tspan></tspan></text></g></g><g id="SvgjsG1014" transform="translate(135,194)"><path id="SvgjsPath1015" d="M 0 4Q 0 0 4 0L 128 0Q 132 0 132 4L 132 50Q 132 54 128 54L 4 54Q 0 54 0 50Z" stroke="rgba(33,41,48,1)" stroke-width="2" fill-opacity="1" fill="#7bd144"></path><g id="SvgjsG1016"><text id="SvgjsText1017" font-family="微软雅黑" text-anchor="middle" font-size="13px" width="112px" fill="#323232" font-weight="400" align="middle" lineHeight="125%" anchor="middle" family="微软雅黑" size="13px" weight="400" font-style="" opacity="1" y="16.375" transform="rotate(0)"><tspan id="SvgjsTspan1018" dy="16" x="66"><tspan id="SvgjsTspan1019" style="text-decoration:;">BinaryExpression</tspan></tspan></text></g></g><g id="SvgjsG1020" transform="translate(344,194)"><path id="SvgjsPath1021" d="M 0 4Q 0 0 4 0L 128 0Q 132 0 132 4L 132 50Q 132 54 128 54L 4 54Q 0 54 0 50Z" stroke="rgba(33,41,48,1)" stroke-width="2" fill-opacity="1" fill="#7bd144"></path><g id="SvgjsG1022"><text id="SvgjsText1023" font-family="微软雅黑" text-anchor="middle" font-size="13px" width="112px" fill="#323232" font-weight="400" align="middle" lineHeight="125%" anchor="middle" family="微软雅黑" size="13px" weight="400" font-style="" opacity="1" y="16.375" transform="rotate(0)"><tspan id="SvgjsTspan1024" dy="16" x="66"><tspan id="SvgjsTspan1025" style="text-decoration:;">StringLiteral</tspan></tspan></text></g></g><g id="SvgjsG1026" transform="translate(25,307)"><path id="SvgjsPath1027" d="M 0 4Q 0 0 4 0L 128 0Q 132 0 132 4L 132 50Q 132 54 128 54L 4 54Q 0 54 0 50Z" stroke="rgba(33,41,48,1)" stroke-width="2" fill-opacity="1" fill="#7bd144"></path><g id="SvgjsG1028"><text id="SvgjsText1029" font-family="微软雅黑" text-anchor="middle" font-size="13px" width="112px" fill="#323232" font-weight="400" align="middle" lineHeight="125%" anchor="middle" family="微软雅黑" size="13px" weight="400" font-style="" opacity="1" y="16.375" transform="rotate(0)"><tspan id="SvgjsTspan1030" dy="16" x="66"><tspan id="SvgjsTspan1031" style="text-decoration:;">StringLiteral</tspan></tspan></text></g></g><g id="SvgjsG1032" transform="translate(236,307)"><path id="SvgjsPath1033" d="M 0 4Q 0 0 4 0L 128 0Q 132 0 132 4L 132 50Q 132 54 128 54L 4 54Q 0 54 0 50Z" stroke="rgba(33,41,48,1)" stroke-width="2" fill-opacity="1" fill="#7bd144"></path><g id="SvgjsG1034"><text id="SvgjsText1035" font-family="微软雅黑" text-anchor="middle" font-size="13px" width="112px" fill="#323232" font-weight="400" align="middle" lineHeight="125%" anchor="middle" family="微软雅黑" size="13px" weight="400" font-style="" opacity="1" y="16.375" transform="rotate(0)"><tspan id="SvgjsTspan1036" dy="16" x="66"><tspan id="SvgjsTspan1037" style="text-decoration:;">StringLiteral</tspan></tspan></text></g></g><g id="SvgjsG1038"><path id="SvgjsPath1039" d="M301.1181309223803 140.4714943583313L204.17472867943079 192.3026203100073" stroke="#323232" stroke-width="2" fill="none" marker-end="url(#SvgjsMarker1040)"></path></g><g id="SvgjsG1042"><path id="SvgjsPath1043" d="M302.8944271909999 140.44721359549996L406.7800621124003 192.39003105620014" stroke="#323232" stroke-width="2" fill="none" marker-end="url(#SvgjsMarker1044)"></path></g><g id="SvgjsG1046"><path id="SvgjsPath1047" d="M200.11875833699148 248.47266598288638L94.17246998683072 305.298402461609" stroke="#323232" stroke-width="2" fill="none" marker-end="url(#SvgjsMarker1048)"></path></g><g id="SvgjsG1050"><path id="SvgjsPath1051" d="M201.8634686629242 248.50440248626262L298.89151281347296 305.1841510494545" stroke="#323232" stroke-width="2" fill="none" marker-end="url(#SvgjsMarker1052)"></path></g><g id="SvgjsG1054"><path id="SvgjsPath1055" d="M274 25C 274 49.400000000000006 274 61.599999999999994 274 82.4" stroke="#e74f4c" stroke-width="2" fill="none" marker-end="url(#SvgjsMarker1056)"></path></g><g id="SvgjsG1058"><path id="SvgjsPath1059" d="M235.00879373031745 113.13232585137442C 176.85272618285777 113 75.85272618285777 221 131.45566626293413 220.3693666990265" stroke="#e74f4c" stroke-width="2" fill="none" marker-end="url(#SvgjsMarker1060)"></path></g><g id="SvgjsG1062"><path id="SvgjsPath1063" d="M267.99120626968255 220.86767414862558C 326.14727381714226 221 427.14727381714226 112.99999999999999 371.54433373706587 113.6306333009735" stroke="#e74f4c" stroke-width="2" fill="none" marker-end="url(#SvgjsMarker1064)"></path></g><g id="SvgjsG1066"><path id="SvgjsPath1067" d="M332 85C 332 62.400000000000006 332 50.599999999999994 332 27" stroke="#e74f4c" stroke-width="2" fill="none" marker-end="url(#SvgjsMarker1068)"></path></g><g id="SvgjsG1070" transform="translate(202,56)"><path id="SvgjsPath1071" d="M 0 17C 0 -5.666666666666667 34 -5.666666666666667 34 17C 34 39.666666666666664 0 39.666666666666664 0 17Z" stroke="rgba(231,79,76,1)" stroke-width="2" fill-opacity="1" fill="#ffffff"></path><g id="SvgjsG1072"><text id="SvgjsText1073" font-family="微软雅黑" text-anchor="middle" font-size="13px" width="14px" fill="#e74f4c" font-weight="400" align="middle" lineHeight="125%" anchor="middle" family="微软雅黑" size="13px" weight="400" font-style="" opacity="1" y="6.375" transform="rotate(0)"><tspan id="SvgjsTspan1074" dy="16" x="17"><tspan id="SvgjsTspan1075" style="text-decoration:;">1</tspan></tspan></text></g></g><g id="SvgjsG1076" transform="translate(74,209)"><path id="SvgjsPath1077" d="M 0 17C 0 -5.666666666666667 34 -5.666666666666667 34 17C 34 39.666666666666664 0 39.666666666666664 0 17Z" stroke="rgba(231,79,76,1)" stroke-width="2" fill-opacity="1" fill="#ffffff"></path><g id="SvgjsG1078"><text id="SvgjsText1079" font-family="微软雅黑" text-anchor="middle" font-size="13px" width="14px" fill="#e74f4c" font-weight="400" align="middle" lineHeight="125%" anchor="middle" family="微软雅黑" size="13px" weight="400" font-style="" opacity="1" y="6.375" transform="rotate(0)"><tspan id="SvgjsTspan1080" dy="16" x="17"><tspan id="SvgjsTspan1081" style="text-decoration:;">2</tspan></tspan></text></g></g><g id="SvgjsG1082" transform="translate(273,229)"><path id="SvgjsPath1083" d="M 0 17C 0 -5.666666666666667 34 -5.666666666666667 34 17C 34 39.666666666666664 0 39.666666666666664 0 17Z" stroke="rgba(231,79,76,1)" stroke-width="2" fill-opacity="1" fill="#ffffff"></path><g id="SvgjsG1084"><text id="SvgjsText1085" font-family="微软雅黑" text-anchor="middle" font-size="13px" width="14px" fill="#e74f4c" font-weight="400" align="middle" lineHeight="125%" anchor="middle" family="微软雅黑" size="13px" weight="400" font-style="" opacity="1" y="6.375" transform="rotate(0)"><tspan id="SvgjsTspan1086" dy="16" x="17"><tspan id="SvgjsTspan1087" style="text-decoration:;">3</tspan></tspan></text></g></g><g id="SvgjsG1088" transform="translate(393,90)"><path id="SvgjsPath1089" d="M 0 17C 0 -5.666666666666667 34 -5.666666666666667 34 17C 34 39.666666666666664 0 39.666666666666664 0 17Z" stroke="rgba(231,79,76,1)" stroke-width="2" fill-opacity="1" fill="#ffffff"></path><g id="SvgjsG1090"><text id="SvgjsText1091" font-family="微软雅黑" text-anchor="middle" font-size="13px" width="14px" fill="#e74f4c" font-weight="400" align="middle" lineHeight="125%" anchor="middle" family="微软雅黑" size="13px" weight="400" font-style="" opacity="1" y="6.375" transform="rotate(0)"><tspan id="SvgjsTspan1092" dy="16" x="17"><tspan id="SvgjsTspan1093" style="text-decoration:;">4</tspan></tspan></text></g></g></svg>