<svg id="SvgjsSvg1001" width="712" height="402" xmlns="http://www.w3.org/2000/svg" version="1.1" xmlns:xlink="http://www.w3.org/1999/xlink" xmlns:svgjs="http://svgjs.com/svgjs"><defs id="SvgjsDefs1002"><marker id="SvgjsMarker1042" markerWidth="14" markerHeight="10" refX="10" refY="5" viewBox="0 0 14 10" orient="auto" markerUnits="userSpaceOnUse" stroke-dasharray="0,0"><path id="SvgjsPath1043" d="M0,0 L14,5 L0,10 L0,0" fill="#323232" stroke="#323232" stroke-width="1"></path></marker><marker id="SvgjsMarker1056" markerWidth="14" markerHeight="10" refX="10" refY="5" viewBox="0 0 14 10" orient="auto" markerUnits="userSpaceOnUse" stroke-dasharray="0,0"><path id="SvgjsPath1057" d="M0,0 L14,5 L0,10 L0,0" fill="#323232" stroke="#323232" stroke-width="1"></path></marker><marker id="SvgjsMarker1078" markerWidth="14" markerHeight="10" refX="10" refY="5" viewBox="0 0 14 10" orient="auto" markerUnits="userSpaceOnUse" stroke-dasharray="0,0"><path id="SvgjsPath1079" d="M0,0 L14,5 L0,10 L0,0" fill="#323232" stroke="#323232" stroke-width="1"></path></marker><marker id="SvgjsMarker1100" markerWidth="14" markerHeight="10" refX="10" refY="5" viewBox="0 0 14 10" orient="auto" markerUnits="userSpaceOnUse" stroke-dasharray="0,0"><path id="SvgjsPath1101" d="M0,0 L14,5 L0,10 L0,0" fill="#323232" stroke="#323232" stroke-width="1"></path></marker></defs><g id="SvgjsG1008" transform="translate(470,237)"><path id="SvgjsPath1009" d="M 0 4Q 0 0 4 0L 159 0Q 163 0 163 4L 163 136Q 163 140 159 140L 4 140Q 0 140 0 136Z" stroke="rgba(33,41,48,1)" stroke-width="2" fill-opacity="1" fill="#ffffff"></path><g id="SvgjsG1010"><text id="SvgjsText1011" font-family="微软雅黑" text-anchor="middle" font-size="13px" width="143px" fill="#323232" font-weight="400" align="middle" lineHeight="125%" anchor="middle" family="微软雅黑" size="13px" weight="400" font-style="" opacity="1" y="59.375" transform="rotate(0)"></text></g></g><g id="SvgjsG1012" transform="translate(419,30.5)"><path id="SvgjsPath1013" d="M 0 0L 227 0L 243 16L 243 43L 0 43L 0 0Z" stroke="none" fill-opacity="1" fill="#fff7bc"></path><path id="SvgjsPath1014" d="M 227 0L 227 16L 243 16Z" stroke="none" fill-opacity="1" fill="#e4d089"></path><path id="SvgjsPath1015" d="M 0 0L 227 0L 243 16L 243 43L 0 43L 0 0Z" stroke="none" fill="none"></path><g id="SvgjsG1016"><text id="SvgjsText1017" font-family="微软雅黑" text-anchor="middle" font-size="13px" width="223px" fill="#323232" font-weight="400" align="middle" lineHeight="125%" anchor="middle" family="微软雅黑" size="13px" weight="400" font-style="" opacity="1" y="10.875" transform="rotate(0)"><tspan id="SvgjsTspan1018" dy="16" x="121.5"><tspan id="SvgjsTspan1019" style="text-decoration:;">"10|9|21|14".split(R8TZMlWh("'", 10))</tspan></tspan></text></g></g><g id="SvgjsG1020" transform="translate(268,25)"><path id="SvgjsPath1021" d="M 0 4Q 0 0 4 0L 138 0Q 142 0 142 4L 142 50Q 142 54 138 54L 4 54Q 0 54 0 50Z" stroke="rgba(33,41,48,1)" stroke-width="2" fill-opacity="1" fill="#7bd144"></path><g id="SvgjsG1022"><text id="SvgjsText1023" font-family="微软雅黑" text-anchor="middle" font-size="13px" width="122px" fill="#323232" font-weight="400" align="middle" lineHeight="125%" anchor="middle" family="微软雅黑" size="13px" weight="400" font-style="" opacity="1" y="16.375" transform="rotate(0)"><tspan id="SvgjsTspan1024" dy="16" x="71"><tspan id="SvgjsTspan1025" style="text-decoration:;">CallExpression</tspan></tspan></text></g></g><g id="SvgjsG1026" transform="translate(160,131)"><path id="SvgjsPath1027" d="M 0 4Q 0 0 4 0L 138 0Q 142 0 142 4L 142 50Q 142 54 138 54L 4 54Q 0 54 0 50Z" stroke="rgba(231,79,76,1)" stroke-width="2" fill-opacity="1" fill="#7bd144"></path><g id="SvgjsG1028"><text id="SvgjsText1029" font-family="微软雅黑" text-anchor="middle" font-size="13px" width="122px" fill="#e74f4c" font-weight="400" align="middle" lineHeight="125%" anchor="middle" family="微软雅黑" size="13px" weight="400" font-style="" opacity="1" y="16.375" transform="rotate(0)"><tspan id="SvgjsTspan1030" dy="16" x="71"><tspan id="SvgjsTspan1031" style="text-decoration:;">MemberExpression</tspan></tspan></text></g></g><g id="SvgjsG1032" transform="translate(25,136.5)"><path id="SvgjsPath1033" d="M 0 0L 112 0L 128 16L 128 43L 0 43L 0 0Z" stroke="none" fill-opacity="1" fill="#fff7bc"></path><path id="SvgjsPath1034" d="M 112 0L 112 16L 128 16Z" stroke="none" fill-opacity="1" fill="#e4d089"></path><path id="SvgjsPath1035" d="M 0 0L 112 0L 128 16L 128 43L 0 43L 0 0Z" stroke="none" fill="none"></path><g id="SvgjsG1036"><text id="SvgjsText1037" font-family="微软雅黑" text-anchor="middle" font-size="13px" width="108px" fill="#323232" font-weight="400" align="middle" lineHeight="125%" anchor="middle" family="微软雅黑" size="13px" weight="400" font-style="" opacity="1" y="10.875" transform="rotate(0)"><tspan id="SvgjsTspan1038" dy="16" x="64"><tspan id="SvgjsTspan1039" style="text-decoration:;">"10|9|21|14".split</tspan></tspan></text></g></g><g id="SvgjsG1040"><path id="SvgjsPath1041" d="M338.0989983302409 79.43381561877291L234.24360601113278 129.43826377241757" stroke="#323232" stroke-width="2" fill="none" marker-end="url(#SvgjsMarker1042)"></path><rect id="SvgjsRect1044" width="35" height="16" x="268.67130217068683" y="96.43603969559524" fill="#ffffff"></rect><text id="SvgjsText1045" font-family="微软雅黑" text-anchor="middle" font-size="13px" width="35px" fill="#323232" font-weight="400" align="top" lineHeight="16px" anchor="middle" family="微软雅黑" size="13px" weight="400" font-style="" opacity="1" y="93.81103969559524" transform="rotate(0)"><tspan id="SvgjsTspan1046" dy="16" x="286.17130217068683"><tspan id="SvgjsTspan1047" style="text-decoration:;">callee</tspan></tspan></text></g><g id="SvgjsG1048" transform="translate(365,131)"><path id="SvgjsPath1049" d="M 0 4Q 0 0 4 0L 138 0Q 142 0 142 4L 142 50Q 142 54 138 54L 4 54Q 0 54 0 50Z" stroke="rgba(33,41,48,1)" stroke-width="2" fill-opacity="1" fill="#7bd144"></path><g id="SvgjsG1050"><text id="SvgjsText1051" font-family="微软雅黑" text-anchor="middle" font-size="13px" width="122px" fill="#323232" font-weight="400" align="middle" lineHeight="125%" anchor="middle" family="微软雅黑" size="13px" weight="400" font-style="" opacity="1" y="16.375" transform="rotate(0)"><tspan id="SvgjsTspan1052" dy="16" x="71"><tspan id="SvgjsTspan1053" style="text-decoration:;">CallExpression</tspan></tspan></text></g></g><g id="SvgjsG1054"><path id="SvgjsPath1055" d="M339.8813448591984 79.47247353276617L432.82715850688567 129.29909528204183" stroke="#323232" stroke-width="2" fill="none" marker-end="url(#SvgjsMarker1056)"></path><rect id="SvgjsRect1058" width="64" height="16" x="354.35425168304204" y="96.385784407404" fill="#ffffff"></rect><text id="SvgjsText1059" font-family="微软雅黑" text-anchor="middle" font-size="13px" width="64px" fill="#323232" font-weight="400" align="top" lineHeight="16px" anchor="middle" family="微软雅黑" size="13px" weight="400" font-style="" opacity="1" y="93.760784407404" transform="rotate(0)"><tspan id="SvgjsTspan1060" dy="16" x="386.35425168304204"><tspan id="SvgjsTspan1061" style="text-decoration:;">arguments</tspan></tspan></text></g><g id="SvgjsG1062" transform="translate(518,136.5)"><path id="SvgjsPath1063" d="M 0 0L 128 0L 144 16L 144 43L 0 43L 0 0Z" stroke="none" fill-opacity="1" fill="#fff7bc"></path><path id="SvgjsPath1064" d="M 128 0L 128 16L 144 16Z" stroke="none" fill-opacity="1" fill="#e4d089"></path><path id="SvgjsPath1065" d="M 0 0L 128 0L 144 16L 144 43L 0 43L 0 0Z" stroke="none" fill="none"></path><g id="SvgjsG1066"><text id="SvgjsText1067" font-family="微软雅黑" text-anchor="middle" font-size="13px" width="124px" fill="#323232" font-weight="400" align="middle" lineHeight="125%" anchor="middle" family="微软雅黑" size="13px" weight="400" font-style="" opacity="1" y="10.875" transform="rotate(0)"><tspan id="SvgjsTspan1068" dy="16" x="72"><tspan id="SvgjsTspan1069" style="text-decoration:;">R8TZMlWh("'", 10)</tspan></tspan></text></g></g><g id="SvgjsG1070" transform="translate(264,237)"><path id="SvgjsPath1071" d="M 0 4Q 0 0 4 0L 138 0Q 142 0 142 4L 142 50Q 142 54 138 54L 4 54Q 0 54 0 50Z" stroke="rgba(33,41,48,1)" stroke-width="2" fill-opacity="1" fill="#7bd144"></path><g id="SvgjsG1072"><text id="SvgjsText1073" font-family="微软雅黑" text-anchor="middle" font-size="13px" width="122px" fill="#323232" font-weight="400" align="middle" lineHeight="125%" anchor="middle" family="微软雅黑" size="13px" weight="400" font-style="" opacity="1" y="16.375" transform="rotate(0)"><tspan id="SvgjsTspan1074" dy="16" x="71"><tspan id="SvgjsTspan1075" style="text-decoration:;">Identifier</tspan></tspan></text></g></g><g id="SvgjsG1076"><path id="SvgjsPath1077" d="M435.11091687085036 185.4577457694632L338.20069926493875 235.3521152299325" stroke="#323232" stroke-width="2" fill="none" marker-end="url(#SvgjsMarker1078)"></path><rect id="SvgjsRect1080" width="35" height="16" x="369.15580806789455" y="202.40493049969785" fill="#ffffff"></rect><text id="SvgjsText1081" font-family="微软雅黑" text-anchor="middle" font-size="13px" width="35px" fill="#323232" font-weight="400" align="top" lineHeight="16px" anchor="middle" family="微软雅黑" size="13px" weight="400" font-style="" opacity="1" y="199.77993049969785" transform="rotate(0)"><tspan id="SvgjsTspan1082" dy="16" x="386.65580806789455"><tspan id="SvgjsTspan1083" style="text-decoration:;">callee</tspan></tspan></text></g><g id="SvgjsG1084" transform="translate(147,242.5)"><path id="SvgjsPath1085" d="M 0 0L 92 0L 108 16L 108 43L 0 43L 0 0Z" stroke="none" fill-opacity="1" fill="#fff7bc"></path><path id="SvgjsPath1086" d="M 92 0L 92 16L 108 16Z" stroke="none" fill-opacity="1" fill="#e4d089"></path><path id="SvgjsPath1087" d="M 0 0L 92 0L 108 16L 108 43L 0 43L 0 0Z" stroke="none" fill="none"></path><g id="SvgjsG1088"><text id="SvgjsText1089" font-family="微软雅黑" text-anchor="middle" font-size="13px" width="88px" fill="#323232" font-weight="400" align="middle" lineHeight="125%" anchor="middle" family="微软雅黑" size="13px" weight="400" font-style="" opacity="1" y="10.875" transform="rotate(0)"><tspan id="SvgjsTspan1090" dy="16" x="54"><tspan id="SvgjsTspan1091" style="text-decoration:;">R8TZMlWh</tspan></tspan></text></g></g><g id="SvgjsG1092" transform="translate(480.5,247)"><path id="SvgjsPath1093" d="M 0 4Q 0 0 4 0L 138 0Q 142 0 142 4L 142 50Q 142 54 138 54L 4 54Q 0 54 0 50Z" stroke="rgba(33,41,48,1)" stroke-width="2" fill-opacity="1" fill="#7bd144"></path><g id="SvgjsG1094"><text id="SvgjsText1095" font-family="微软雅黑" text-anchor="middle" font-size="13px" width="122px" fill="#323232" font-weight="400" align="middle" lineHeight="125%" anchor="middle" family="微软雅黑" size="13px" weight="400" font-style="" opacity="1" y="16.375" transform="rotate(0)"><tspan id="SvgjsTspan1096" dy="16" x="71"><tspan id="SvgjsTspan1097" style="text-decoration:;">StringLiteral</tspan></tspan></text></g></g><g id="SvgjsG1098"><path id="SvgjsPath1099" d="M436.91184763067236 185.4105288034196L548.2173485295793 235.52209630768942" stroke="#323232" stroke-width="2" fill="none" marker-end="url(#SvgjsMarker1100)"></path></g><g id="SvgjsG1102" transform="translate(480.5,312)"><path id="SvgjsPath1103" d="M 0 4Q 0 0 4 0L 138 0Q 142 0 142 4L 142 50Q 142 54 138 54L 4 54Q 0 54 0 50Z" stroke="rgba(33,41,48,1)" stroke-width="2" fill-opacity="1" fill="#7bd144"></path><g id="SvgjsG1104"><text id="SvgjsText1105" font-family="微软雅黑" text-anchor="middle" font-size="13px" width="122px" fill="#323232" font-weight="400" align="middle" lineHeight="125%" anchor="middle" family="微软雅黑" size="13px" weight="400" font-style="" opacity="1" y="16.375" transform="rotate(0)"><tspan id="SvgjsTspan1106" dy="16" x="71"><tspan id="SvgjsTspan1107" style="text-decoration:;">NumericLiteral</tspan></tspan></text></g></g><g id="SvgjsG1108" transform="translate(642,252.5)"><path id="SvgjsPath1109" d="M 0 0L 29 0L 45 16L 45 43L 0 43L 0 0Z" stroke="none" fill-opacity="1" fill="#fff7bc"></path><path id="SvgjsPath1110" d="M 29 0L 29 16L 45 16Z" stroke="none" fill-opacity="1" fill="#e4d089"></path><path id="SvgjsPath1111" d="M 0 0L 29 0L 45 16L 45 43L 0 43L 0 0Z" stroke="none" fill="none"></path><g id="SvgjsG1112"><text id="SvgjsText1113" font-family="微软雅黑" text-anchor="middle" font-size="13px" width="25px" fill="#323232" font-weight="400" align="middle" lineHeight="125%" anchor="middle" family="微软雅黑" size="13px" weight="400" font-style="" opacity="1" y="10.875" transform="rotate(0)"><tspan id="SvgjsTspan1114" dy="16" x="22.5"><tspan id="SvgjsTspan1115" style="text-decoration:;">'"</tspan></tspan></text></g></g><g id="SvgjsG1116" transform="translate(642,317.5)"><path id="SvgjsPath1117" d="M 0 0L 29 0L 45 16L 45 43L 0 43L 0 0Z" stroke="none" fill-opacity="1" fill="#fff7bc"></path><path id="SvgjsPath1118" d="M 29 0L 29 16L 45 16Z" stroke="none" fill-opacity="1" fill="#e4d089"></path><path id="SvgjsPath1119" d="M 0 0L 29 0L 45 16L 45 43L 0 43L 0 0Z" stroke="none" fill="none"></path><g id="SvgjsG1120"><text id="SvgjsText1121" font-family="微软雅黑" text-anchor="middle" font-size="13px" width="25px" fill="#323232" font-weight="400" align="middle" lineHeight="125%" anchor="middle" family="微软雅黑" size="13px" weight="400" font-style="" opacity="1" y="10.875" transform="rotate(0)"><tspan id="SvgjsTspan1122" dy="16" x="22.5"><tspan id="SvgjsTspan1123" style="text-decoration:;">10</tspan></tspan></text></g></g></svg>