<svg id="SvgjsSvg1001" width="1034" height="405" xmlns="http://www.w3.org/2000/svg" version="1.1" xmlns:xlink="http://www.w3.org/1999/xlink" xmlns:svgjs="http://svgjs.com/svgjs"><defs id="SvgjsDefs1002"><marker id="SvgjsMarker1024" markerWidth="14" markerHeight="10" refX="10" refY="5" viewBox="0 0 14 10" orient="auto" markerUnits="userSpaceOnUse" stroke-dasharray="0,0"><path id="SvgjsPath1025" d="M0,0 L14,5 L0,10 L0,0" fill="#323232" stroke="#323232" stroke-width="1"></path></marker><marker id="SvgjsMarker1038" markerWidth="14" markerHeight="10" refX="10" refY="5" viewBox="0 0 14 10" orient="auto" markerUnits="userSpaceOnUse" stroke-dasharray="0,0"><path id="SvgjsPath1039" d="M0,0 L14,5 L0,10 L0,0" fill="#323232" stroke="#323232" stroke-width="1"></path></marker><marker id="SvgjsMarker1054" markerWidth="14" markerHeight="10" refX="10" refY="5" viewBox="0 0 14 10" orient="auto" markerUnits="userSpaceOnUse" stroke-dasharray="0,0"><path id="SvgjsPath1055" d="M0,0 L14,5 L0,10 L0,0" fill="#323232" stroke="#323232" stroke-width="1"></path></marker><marker id="SvgjsMarker1076" markerWidth="14" markerHeight="10" refX="10" refY="5" viewBox="0 0 14 10" orient="auto" markerUnits="userSpaceOnUse" stroke-dasharray="0,0"><path id="SvgjsPath1077" d="M0,0 L14,5 L0,10 L0,0" fill="#323232" stroke="#323232" stroke-width="1"></path></marker><marker id="SvgjsMarker1126" markerWidth="14" markerHeight="10" refX="10" refY="5" viewBox="0 0 14 10" orient="auto" markerUnits="userSpaceOnUse" stroke-dasharray="0,0"><path id="SvgjsPath1127" d="M0,0 L14,5 L0,10 L0,0" fill="#323232" stroke="#323232" stroke-width="1"></path></marker><marker id="SvgjsMarker1144" markerWidth="14" markerHeight="10" refX="10" refY="5" viewBox="0 0 14 10" orient="auto" markerUnits="userSpaceOnUse" stroke-dasharray="0,0"><path id="SvgjsPath1145" d="M0,0 L14,5 L0,10 L0,0" fill="#323232" stroke="#323232" stroke-width="1"></path></marker></defs><g id="SvgjsG1008" transform="translate(380.5,25)"><path id="SvgjsPath1009" d="M 0 4Q 0 0 4 0L 111 0Q 115 0 115 4L 115 50Q 115 54 111 54L 4 54Q 0 54 0 50Z" stroke="rgba(33,41,48,1)" stroke-width="2" fill-opacity="1" fill="#7bd144"></path><g id="SvgjsG1010"><text id="SvgjsText1011" font-family="微软雅黑" text-anchor="middle" font-size="13px" width="95px" fill="#323232" font-weight="400" align="middle" lineHeight="125%" anchor="middle" family="微软雅黑" size="13px" weight="400" font-style="" opacity="1" y="16.375" transform="rotate(0)"><tspan id="SvgjsTspan1012" dy="16" x="57.5"><tspan id="SvgjsTspan1013" style="text-decoration:;">CallExpression</tspan></tspan></text></g></g><g id="SvgjsG1014" transform="translate(509,27.5)"><path id="SvgjsPath1015" d="M 0 0L 346 0L 362 16L 362 49L 0 49L 0 0Z" stroke="none" fill-opacity="1" fill="#fff7bc"></path><path id="SvgjsPath1016" d="M 346 0L 346 16L 362 16Z" stroke="none" fill-opacity="1" fill="#e4d089"></path><path id="SvgjsPath1017" d="M 0 0L 346 0L 362 16L 362 49L 0 49L 0 0Z" stroke="none" fill="none"></path><g id="SvgjsG1018"><text id="SvgjsText1019" font-family="微软雅黑" text-anchor="middle" font-size="13px" width="342px" fill="#323232" font-weight="400" align="middle" lineHeight="125%" anchor="middle" family="微软雅黑" size="13px" weight="400" font-style="" opacity="1" y="13.875" transform="rotate(0)"><tspan id="SvgjsTspan1020" dy="16" x="181"><tspan id="SvgjsTspan1021" style="text-decoration:;fill: rgb(51, 51, 51);">_l1$1L1lL.oQuG36(sdk.umark, cm$wMDxg("IFYo^", 22))</tspan></tspan></text></g></g><g id="SvgjsG1022"><path id="SvgjsPath1023" d="M437.03048744358375 79.24504163513816L259.49024520309854 124.11785011350256" stroke="#323232" stroke-width="2" fill="none" marker-end="url(#SvgjsMarker1024)"></path><rect id="SvgjsRect1026" width="35" height="16" x="328.0985935761075" y="94.35420162362118" fill="#ffffff"></rect><text id="SvgjsText1027" font-family="微软雅黑" text-anchor="middle" font-size="13px" width="35px" fill="#323232" font-weight="400" align="top" lineHeight="16px" anchor="middle" family="微软雅黑" size="13px" weight="400" font-style="" opacity="1" y="91.72920162362118" transform="rotate(0)"><tspan id="SvgjsTspan1028" dy="16" x="345.5985935761075"><tspan id="SvgjsTspan1029" style="text-decoration:;">callee</tspan></tspan></text></g><g id="SvgjsG1030" transform="translate(183,125)"><path id="SvgjsPath1031" d="M 0 4Q 0 0 4 0L 142 0Q 146 0 146 4L 146 50Q 146 54 142 54L 4 54Q 0 54 0 50Z" stroke="rgba(33,41,48,1)" stroke-width="2" fill-opacity="1" fill="#7bd144"></path><g id="SvgjsG1032"><text id="SvgjsText1033" font-family="微软雅黑" text-anchor="middle" font-size="13px" width="126px" fill="#323232" font-weight="400" align="middle" lineHeight="125%" anchor="middle" family="微软雅黑" size="13px" weight="400" font-style="" opacity="1" y="16.375" transform="rotate(0)"><tspan id="SvgjsTspan1034" dy="16" x="73"><tspan id="SvgjsTspan1035" style="text-decoration:;">MemberExpression</tspan></tspan></text></g></g><g id="SvgjsG1036"><path id="SvgjsPath1037" d="M438.98086451594656 79.19469155440578L666.2188877425924 124.29911040413916" stroke="#323232" stroke-width="2" fill="none" marker-end="url(#SvgjsMarker1038)"></path><rect id="SvgjsRect1040" width="64" height="16" x="512.7640822249024" y="92.19157619135063" fill="#ffffff"></rect><text id="SvgjsText1041" font-family="微软雅黑" text-anchor="middle" font-size="13px" width="64px" fill="#323232" font-weight="400" align="top" lineHeight="16px" anchor="middle" family="微软雅黑" size="13px" weight="400" font-style="" opacity="1" y="89.56657619135063" transform="rotate(0)"><tspan id="SvgjsTspan1042" dy="16" x="544.7640822249024"><tspan id="SvgjsTspan1043" style="text-decoration:;">arguments</tspan></tspan></text></g><g id="SvgjsG1044" transform="translate(25,127.5)"><path id="SvgjsPath1045" d="M 0 0L 128 0L 144 16L 144 49L 0 49L 0 0Z" stroke="none" fill-opacity="1" fill="#fff7bc"></path><path id="SvgjsPath1046" d="M 128 0L 128 16L 144 16Z" stroke="none" fill-opacity="1" fill="#e4d089"></path><path id="SvgjsPath1047" d="M 0 0L 128 0L 144 16L 144 49L 0 49L 0 0Z" stroke="none" fill="none"></path><g id="SvgjsG1048"><text id="SvgjsText1049" font-family="微软雅黑" text-anchor="middle" font-size="13px" width="124px" fill="#323232" font-weight="400" align="middle" lineHeight="125%" anchor="middle" family="微软雅黑" size="13px" weight="400" font-style="" opacity="1" y="13.875" transform="rotate(0)"><tspan id="SvgjsTspan1050" dy="16" x="72"><tspan id="SvgjsTspan1051" style="text-decoration:;">_l1$1L1lL.oQuG36</tspan></tspan></text></g></g><g id="SvgjsG1052"><path id="SvgjsPath1053" d="M255.15311001114696 179.53176813253566L173.04880395987104 231.08563472287165" stroke="#323232" stroke-width="2" fill="none" marker-end="url(#SvgjsMarker1054)"></path><rect id="SvgjsRect1056" width="38" height="16" x="203.84174661347345" y="191.82029863805155" fill="#ffffff"></rect><text id="SvgjsText1057" font-family="微软雅黑" text-anchor="middle" font-size="13px" width="38px" fill="#323232" font-weight="400" align="top" lineHeight="16px" anchor="middle" family="微软雅黑" size="13px" weight="400" font-style="" opacity="1" y="189.19529863805155" transform="rotate(0)"><tspan id="SvgjsTspan1058" dy="16" x="222.84174661347345"><tspan id="SvgjsTspan1059" style="text-decoration:;">object</tspan></tspan></text></g><g id="SvgjsG1060" transform="translate(111,233)"><path id="SvgjsPath1061" d="M 0 4Q 0 0 4 0L 111 0Q 115 0 115 4L 115 50Q 115 54 111 54L 4 54Q 0 54 0 50Z" stroke="rgba(33,41,48,1)" stroke-width="2" fill-opacity="1" fill="#7bd144"></path><g id="SvgjsG1062"><text id="SvgjsText1063" font-family="微软雅黑" text-anchor="middle" font-size="13px" width="95px" fill="#323232" font-weight="400" align="middle" lineHeight="125%" anchor="middle" family="微软雅黑" size="13px" weight="400" font-style="" opacity="1" y="16.375" transform="rotate(0)"><tspan id="SvgjsTspan1064" dy="16" x="57.5"><tspan id="SvgjsTspan1065" style="text-decoration:;">Identifier</tspan></tspan></text></g></g><g id="SvgjsG1066" transform="translate(25,235.5)"><path id="SvgjsPath1067" d="M 0 0L 56 0L 72 16L 72 49L 0 49L 0 0Z" stroke="none" fill-opacity="1" fill="#fff7bc"></path><path id="SvgjsPath1068" d="M 56 0L 56 16L 72 16Z" stroke="none" fill-opacity="1" fill="#e4d089"></path><path id="SvgjsPath1069" d="M 0 0L 56 0L 72 16L 72 49L 0 49L 0 0Z" stroke="none" fill="none"></path><g id="SvgjsG1070"><text id="SvgjsText1071" font-family="微软雅黑" text-anchor="middle" font-size="13px" width="52px" fill="#323232" font-weight="400" align="middle" lineHeight="125%" anchor="middle" family="微软雅黑" size="13px" weight="400" font-style="" opacity="1" y="13.875" transform="rotate(0)"><tspan id="SvgjsTspan1072" dy="16" x="36"><tspan id="SvgjsTspan1073" style="text-decoration:;">_l1$1L1lL</tspan></tspan></text></g></g><g id="SvgjsG1074"><path id="SvgjsPath1075" d="M256.8096749971828 179.58687852144794L327.5851700101417 230.8872373227873" stroke="#323232" stroke-width="2" fill="none" marker-end="url(#SvgjsMarker1076)"></path></g><g id="SvgjsG1078" transform="translate(273,233)"><path id="SvgjsPath1079" d="M 0 4Q 0 0 4 0L 111 0Q 115 0 115 4L 115 50Q 115 54 111 54L 4 54Q 0 54 0 50Z" stroke="rgba(33,41,48,1)" stroke-width="2" fill-opacity="1" fill="#7bd144"></path><g id="SvgjsG1080"><text id="SvgjsText1081" font-family="微软雅黑" text-anchor="middle" font-size="13px" width="95px" fill="#323232" font-weight="400" align="middle" lineHeight="125%" anchor="middle" family="微软雅黑" size="13px" weight="400" font-style="" opacity="1" y="16.375" transform="rotate(0)"><tspan id="SvgjsTspan1082" dy="16" x="57.5"><tspan id="SvgjsTspan1083" style="text-decoration:;">Identifier</tspan></tspan></text></g></g><g id="SvgjsG1084" transform="translate(402,235.5)"><path id="SvgjsPath1085" d="M 0 0L 56 0L 72 16L 72 49L 0 49L 0 0Z" stroke="none" fill-opacity="1" fill="#fff7bc"></path><path id="SvgjsPath1086" d="M 56 0L 56 16L 72 16Z" stroke="none" fill-opacity="1" fill="#e4d089"></path><path id="SvgjsPath1087" d="M 0 0L 56 0L 72 16L 72 49L 0 49L 0 0Z" stroke="none" fill="none"></path><g id="SvgjsG1088"><text id="SvgjsText1089" font-family="微软雅黑" text-anchor="middle" font-size="13px" width="52px" fill="#323232" font-weight="400" align="middle" lineHeight="125%" anchor="middle" family="微软雅黑" size="13px" weight="400" font-style="" opacity="1" y="13.875" transform="rotate(0)"><tspan id="SvgjsTspan1090" dy="16" x="36"><tspan id="SvgjsTspan1091" style="text-decoration:;">oQuG36</tspan></tspan></text></g></g><g id="SvgjsG1092" transform="translate(509,125)"><path id="SvgjsPath1093" d="M 0 0L 321.5 0L 321.5 76L 0 76Z" stroke="rgba(33,41,48,1)" stroke-width="2" fill-opacity="1" fill="#ffffff"></path><g id="SvgjsG1094"><text id="SvgjsText1095" font-family="微软雅黑" text-anchor="middle" font-size="13px" width="302px" fill="#323232" font-weight="400" align="middle" lineHeight="125%" anchor="middle" family="微软雅黑" size="13px" weight="400" font-style="" opacity="1" y="27.375" transform="rotate(0)"></text></g></g><g id="SvgjsG1096" transform="translate(700,137)"><path id="SvgjsPath1097" d="M 0 4Q 0 0 4 0L 111 0Q 115 0 115 4L 115 50Q 115 54 111 54L 4 54Q 0 54 0 50Z" stroke="rgba(33,41,48,1)" stroke-width="2" fill-opacity="1" fill="#7bd144"></path><g id="SvgjsG1098"><text id="SvgjsText1099" font-family="微软雅黑" text-anchor="middle" font-size="13px" width="95px" fill="#323232" font-weight="400" align="middle" lineHeight="125%" anchor="middle" family="微软雅黑" size="13px" weight="400" font-style="" opacity="1" y="16.375" transform="rotate(0)"><tspan id="SvgjsTspan1100" dy="16" x="57.5"><tspan id="SvgjsTspan1101" style="text-decoration:;">CallExpression</tspan></tspan></text></g></g><g id="SvgjsG1102" transform="translate(524,137)"><path id="SvgjsPath1103" d="M 0 4Q 0 0 4 0L 142 0Q 146 0 146 4L 146 50Q 146 54 142 54L 4 54Q 0 54 0 50Z" stroke="rgba(33,41,48,1)" stroke-width="2" fill-opacity="1" fill="#7bd144"></path><g id="SvgjsG1104"><text id="SvgjsText1105" font-family="微软雅黑" text-anchor="middle" font-size="13px" width="126px" fill="#323232" font-weight="400" align="middle" lineHeight="125%" anchor="middle" family="微软雅黑" size="13px" weight="400" font-style="" opacity="1" y="16.375" transform="rotate(0)"><tspan id="SvgjsTspan1106" dy="16" x="73"><tspan id="SvgjsTspan1107" style="text-decoration:;">MemberExpression</tspan></tspan></text></g></g><g id="SvgjsG1108" transform="translate(424,142)"><path id="SvgjsPath1109" d="M 0 0L 69 0L 85 16L 85 49L 0 49L 0 0Z" stroke="none" fill-opacity="1" fill="#fff7bc"></path><path id="SvgjsPath1110" d="M 69 0L 69 16L 85 16Z" stroke="none" fill-opacity="1" fill="#e4d089"></path><path id="SvgjsPath1111" d="M 0 0L 69 0L 85 16L 85 49L 0 49L 0 0Z" stroke="none" fill="none"></path><g id="SvgjsG1112"><text id="SvgjsText1113" font-family="微软雅黑" text-anchor="middle" font-size="13px" width="65px" fill="#323232" font-weight="400" align="middle" lineHeight="125%" anchor="middle" family="微软雅黑" size="13px" weight="400" font-style="" opacity="1" y="13.875" transform="rotate(0)"><tspan id="SvgjsTspan1114" dy="16" x="42.5"><tspan id="SvgjsTspan1115" style="text-decoration:;">sdk.umark</tspan></tspan></text></g></g><g id="SvgjsG1116" transform="translate(831,139.5)"><path id="SvgjsPath1117" d="M 0 0L 162 0L 178 16L 178 49L 0 49L 0 0Z" stroke="none" fill-opacity="1" fill="#fff7bc"></path><path id="SvgjsPath1118" d="M 162 0L 162 16L 178 16Z" stroke="none" fill-opacity="1" fill="#e4d089"></path><path id="SvgjsPath1119" d="M 0 0L 162 0L 178 16L 178 49L 0 49L 0 0Z" stroke="none" fill="none"></path><g id="SvgjsG1120"><text id="SvgjsText1121" font-family="微软雅黑" text-anchor="middle" font-size="13px" width="158px" fill="#323232" font-weight="400" align="middle" lineHeight="125%" anchor="middle" family="微软雅黑" size="13px" weight="400" font-style="" opacity="1" y="13.875" transform="rotate(0)"><tspan id="SvgjsTspan1122" dy="16" x="89"><tspan id="SvgjsTspan1123" style="text-decoration:;">cm$wMDxg("IFYo^", 22)</tspan></tspan></text></g></g><g id="SvgjsG1124"><path id="SvgjsPath1125" d="M756.5808549699819 191.3939192985792L662.808922108065 231.581890525115" stroke="#323232" stroke-width="2" fill="none" marker-end="url(#SvgjsMarker1126)"></path></g><g id="SvgjsG1128" transform="translate(602,233)"><path id="SvgjsPath1129" d="M 0 4Q 0 0 4 0L 111 0Q 115 0 115 4L 115 50Q 115 54 111 54L 4 54Q 0 54 0 50Z" stroke="rgba(33,41,48,1)" stroke-width="2" fill-opacity="1" fill="#7bd144"></path><g id="SvgjsG1130"><text id="SvgjsText1131" font-family="微软雅黑" text-anchor="middle" font-size="13px" width="95px" fill="#323232" font-weight="400" align="middle" lineHeight="125%" anchor="middle" family="微软雅黑" size="13px" weight="400" font-style="" opacity="1" y="16.375" transform="rotate(0)"><tspan id="SvgjsTspan1132" dy="16" x="57.5"><tspan id="SvgjsTspan1133" style="text-decoration:;">Identifier</tspan></tspan></text></g></g><g id="SvgjsG1134" transform="translate(491,235.5)"><path id="SvgjsPath1135" d="M 0 0L 81 0L 97 16L 97 49L 0 49L 0 0Z" stroke="none" fill-opacity="1" fill="#fff7bc"></path><path id="SvgjsPath1136" d="M 81 0L 81 16L 97 16Z" stroke="none" fill-opacity="1" fill="#e4d089"></path><path id="SvgjsPath1137" d="M 0 0L 81 0L 97 16L 97 49L 0 49L 0 0Z" stroke="none" fill="none"></path><g id="SvgjsG1138"><text id="SvgjsText1139" font-family="微软雅黑" text-anchor="middle" font-size="13px" width="77px" fill="#323232" font-weight="400" align="middle" lineHeight="125%" anchor="middle" family="微软雅黑" size="13px" weight="400" font-style="" opacity="1" y="13.875" transform="rotate(0)"><tspan id="SvgjsTspan1140" dy="16" x="48.5"><tspan id="SvgjsTspan1141" style="text-decoration:;">cm$wMDxg</tspan></tspan></text></g></g><g id="SvgjsG1142"><path id="SvgjsPath1143" d="M758.4246780984747 191.3807498052543L856.171158845491 231.62930070108456" stroke="#323232" stroke-width="2" fill="none" marker-end="url(#SvgjsMarker1144)"></path></g><g id="SvgjsG1146" transform="translate(788,233)"><path id="SvgjsPath1147" d="M 0 0L 143 0L 143 147L 0 147Z" stroke="rgba(33,41,48,1)" stroke-width="2" fill-opacity="1" fill="#ffffff"></path><g id="SvgjsG1148"><text id="SvgjsText1149" font-family="微软雅黑" text-anchor="middle" font-size="13px" width="123px" fill="#323232" font-weight="400" align="middle" lineHeight="125%" anchor="middle" family="微软雅黑" size="13px" weight="400" font-style="" opacity="1" y="62.875" transform="rotate(0)"></text></g></g><g id="SvgjsG1150" transform="translate(801,249.5)"><path id="SvgjsPath1151" d="M 0 4Q 0 0 4 0L 111 0Q 115 0 115 4L 115 50Q 115 54 111 54L 4 54Q 0 54 0 50Z" stroke="rgba(33,41,48,1)" stroke-width="2" fill-opacity="1" fill="#7bd144"></path><g id="SvgjsG1152"><text id="SvgjsText1153" font-family="微软雅黑" text-anchor="middle" font-size="13px" width="95px" fill="#323232" font-weight="400" align="middle" lineHeight="125%" anchor="middle" family="微软雅黑" size="13px" weight="400" font-style="" opacity="1" y="16.375" transform="rotate(0)"><tspan id="SvgjsTspan1154" dy="16" x="57.5"><tspan id="SvgjsTspan1155" style="text-decoration:;">StringLiteral</tspan></tspan></text></g></g><g id="SvgjsG1156" transform="translate(801,314.5)"><path id="SvgjsPath1157" d="M 0 4Q 0 0 4 0L 111 0Q 115 0 115 4L 115 50Q 115 54 111 54L 4 54Q 0 54 0 50Z" stroke="rgba(33,41,48,1)" stroke-width="2" fill-opacity="1" fill="#7bd144"></path><g id="SvgjsG1158"><text id="SvgjsText1159" font-family="微软雅黑" text-anchor="middle" font-size="13px" width="95px" fill="#323232" font-weight="400" align="middle" lineHeight="125%" anchor="middle" family="微软雅黑" size="13px" weight="400" font-style="" opacity="1" y="16.375" transform="rotate(0)"><tspan id="SvgjsTspan1160" dy="16" x="57.5"><tspan id="SvgjsTspan1161" style="text-decoration:;">NumericLiteral</tspan></tspan></text></g></g><g id="SvgjsG1162" transform="translate(927,249.5)"><path id="SvgjsPath1163" d="M 0 0L 56 0L 72 16L 72 49L 0 49L 0 0Z" stroke="none" fill-opacity="1" fill="#fff7bc"></path><path id="SvgjsPath1164" d="M 56 0L 56 16L 72 16Z" stroke="none" fill-opacity="1" fill="#e4d089"></path><path id="SvgjsPath1165" d="M 0 0L 56 0L 72 16L 72 49L 0 49L 0 0Z" stroke="none" fill="none"></path><g id="SvgjsG1166"><text id="SvgjsText1167" font-family="微软雅黑" text-anchor="middle" font-size="13px" width="52px" fill="#323232" font-weight="400" align="middle" lineHeight="125%" anchor="middle" family="微软雅黑" size="13px" weight="400" font-style="" opacity="1" y="13.875" transform="rotate(0)"><tspan id="SvgjsTspan1168" dy="16" x="36"><tspan id="SvgjsTspan1169" style="text-decoration:;fill: rgb(51, 51, 51);">"IFYo^"</tspan></tspan></text></g></g><g id="SvgjsG1170" transform="translate(927,317)"><path id="SvgjsPath1171" d="M 0 0L 56 0L 72 16L 72 49L 0 49L 0 0Z" stroke="none" fill-opacity="1" fill="#fff7bc"></path><path id="SvgjsPath1172" d="M 56 0L 56 16L 72 16Z" stroke="none" fill-opacity="1" fill="#e4d089"></path><path id="SvgjsPath1173" d="M 0 0L 56 0L 72 16L 72 49L 0 49L 0 0Z" stroke="none" fill="none"></path><g id="SvgjsG1174"><text id="SvgjsText1175" font-family="微软雅黑" text-anchor="middle" font-size="13px" width="52px" fill="#323232" font-weight="400" align="middle" lineHeight="125%" anchor="middle" family="微软雅黑" size="13px" weight="400" font-style="" opacity="1" y="13.875" transform="rotate(0)"><tspan id="SvgjsTspan1176" dy="16" x="36"><tspan id="SvgjsTspan1177" style="text-decoration:;">22</tspan></tspan></text></g></g></svg>