<svg width="376" height="376" viewBox="0 0 282 282" xmlns="http://www.w3.org/2000/svg"><g fill="#fc3359"><path d="M23.43 0h234.14c6.03 2.34 12.54 4.43 16.73 9.71 4.2 5.8 7.27 12.95 6.72 20.27-.06 75.01.02 150.03-.03 225.04-1.07 14.26-13.6 26.24-27.98 25.9-73.34.2-146.68 0-220.02.1-11.08.97-23.84-3.57-28.99-14.01-1.71-2.99-2.87-6.21-4-9.44V23.43c2.21-6.3 4.78-12.94 10.24-17.17C14.16 3.29 18.92 1.82 23.43 0m118.9 31.42c-10.77 2.01-21.43 4.76-31.31 9.57-14.95 7.54-27.64 19.19-36.98 33.03-7.65 13.01-15.4 25.96-22.89 39.06-6.74 12.19-14.91 23.58-20.79 36.25-1.35 10.07 8.7 20.49 18.97 17.08 7.32-1.32 9.87-9.1 13.44-14.63 11.07-18.92 22.15-37.85 33.28-56.74C107.51 75.92 129.41 62.75 152 64c6.24.31 13.52-.11 18.23-4.77 4.5-3.9 7.03-10.51 4.78-16.23-1.12-6.09-6.89-9.64-12.07-11.94-6.87-.13-13.77-.36-20.61.36m68.97 24.96c-4.77 1.08-9.92 2.97-12.25 7.65-15.69 25.65-31.24 51.38-47.08 76.94-.16 4.11-4.8 3.73-6.25 1.3-6.71-8.66-17.52-12.01-27.76-14.25-18.11-1.17-36.64 8.78-44.62 25.29-7.2 13.93-6.14 31.74 2.65 44.7 12.67 21.23 44.55 27.13 64.02 12.01 12.68-9.56 18.91-24.56 27.58-37.38 13.76-23.78 29.05-46.65 42.58-70.55 1.19-.14 2.38-.14 3.58.01.92 4.53 3.33 8.58 3.95 13.19 4.45 12.98 1.31 27-2.79 39.64-5.53 11.72-12.78 22.56-19.14 33.85-6.81 11.8-13.65 23.58-20.77 35.19-2.83 5.36-6.54 12.41-1.94 17.99 4.1 9.65 19.06 10.54 24.72 1.83 14.75-24.39 28.84-49.19 43.24-73.78 15.88-31.29 12.11-71.1-9-99.02-4.89-6.88-11.27-15.22-20.72-14.61z"/><path d="M110.32 158.34c7.73-2.31 15.59 2.61 18.71 9.63 5.03 11.03-7.72 24.31-18.91 19.88-7.5-1.63-12.02-9.81-10.52-17.14.49-5.88 5.48-10.34 10.72-12.37z"/></g><g fill="#f4f7fe"><path d="M142.33 31.42c6.84-.72 13.74-.49 20.61-.36 5.18 2.3 10.95 5.85 12.07 11.94 2.25 5.72-.28 12.33-4.78 16.23-4.71 4.66-11.99 5.08-18.23 4.77-22.59-1.25-44.49 11.92-55.95 31.04-11.13 18.89-22.21 37.82-33.28 56.74-3.57 5.53-6.12 13.31-13.44 14.63-10.27 3.41-20.32-7.01-18.97-17.08 5.88-12.67 14.05-24.06 20.79-36.25 7.49-13.1 15.24-26.05 22.89-39.06 9.34-13.84 22.03-25.49 36.98-33.03 9.88-4.81 20.54-7.56 31.31-9.57zM211.3 56.38c9.45-.61 15.83 7.73 20.72 14.61 21.11 27.92 24.88 67.73 9 99.02-14.4 24.59-28.49 49.39-43.24 73.78-5.66 8.71-20.62 7.82-24.72-1.83-4.6-5.58-.89-12.63 1.94-17.99 7.12-11.61 13.96-23.39 20.77-35.19 6.36-11.29 13.61-22.13 19.14-33.85 4.1-12.64 7.24-26.66 2.79-39.64-.62-4.61-3.03-8.66-3.95-13.19-1.2-.15-2.39-.15-3.58-.01-13.53 23.9-28.82 46.77-42.58 70.55-8.67 12.82-14.9 27.82-27.58 37.38-19.47 15.12-51.35 9.22-64.02-12.01-8.79-12.96-9.85-30.77-2.65-44.7 7.98-16.51 26.51-26.46 44.62-25.29 10.24 2.24 21.05 5.59 27.76 14.25 1.45 2.43 6.09 2.81 6.25-1.3 15.84-25.56 31.39-51.29 47.08-76.94 2.33-4.68 7.48-6.57 12.25-7.65M110.32 158.34c-5.24 2.03-10.23 6.49-10.72 12.37-1.5 7.33 3.02 15.51 10.52 17.14 11.19 4.43 23.94-8.85 18.91-19.88-3.12-7.02-10.98-11.94-18.71-9.63z"/></g></svg>