<svg id="SvgjsSvg1042" width="560" height="327" xmlns="http://www.w3.org/2000/svg" version="1.1" xmlns:xlink="http://www.w3.org/1999/xlink" xmlns:svgjs="http://svgjs.com/svgjs"><defs id="SvgjsDefs1043"><marker id="SvgjsMarker1066" markerWidth="14" markerHeight="10" refX="10" refY="5" viewBox="0 0 14 10" orient="auto" markerUnits="userSpaceOnUse" stroke-dasharray="0,0"><path id="SvgjsPath1067" d="M0,0 L14,5 L0,10 L0,0" fill="#323232" stroke="#323232" stroke-width="1"></path></marker><marker id="SvgjsMarker1070" markerWidth="14" markerHeight="10" refX="10" refY="5" viewBox="0 0 14 10" orient="auto" markerUnits="userSpaceOnUse" stroke-dasharray="0,0"><path id="SvgjsPath1071" d="M0,0 L14,5 L0,10 L0,0" fill="#323232" stroke="#323232" stroke-width="1"></path></marker></defs><g id="SvgjsG1044" transform="translate(25,25)"><path id="SvgjsPath1045" d="M 0 4Q 0 0 4 0L 319 0Q 323 0 323 4L 323 273Q 323 277 319 277L 4 277Q 0 277 0 273Z" stroke="rgba(33,41,48,1)" stroke-width="2" fill-opacity="1" fill="#ffffff"></path><g id="SvgjsG1046"><text id="SvgjsText1047" font-family="微软雅黑" text-anchor="middle" font-size="13px" width="303px" fill="#323232" font-weight="400" align="top" lineHeight="125%" anchor="middle" family="微软雅黑" size="13px" weight="400" font-style="" opacity="1" y="-2.625" transform="rotate(0)"><tspan id="SvgjsTspan1048" dy="16" x="161.5"><tspan id="SvgjsTspan1049" style="text-decoration:;"> </tspan></tspan><tspan id="SvgjsTspan1050" dy="16" x="161.5"><tspan id="SvgjsTspan1051" style="text-decoration:;">宿主页面</tspan></tspan></text></g></g><g id="SvgjsG1052" transform="translate(44,152)"><path id="SvgjsPath1053" d="M 0 4Q 0 0 4 0L 92 0Q 96 0 96 4L 96 50Q 96 54 92 54L 4 54Q 0 54 0 50Z" stroke="rgba(33,41,48,1)" stroke-width="2" fill-opacity="1" fill="#ffffff"></path><g id="SvgjsG1054"><text id="SvgjsText1055" font-family="微软雅黑" text-anchor="middle" font-size="13px" width="76px" fill="#323232" font-weight="400" align="middle" lineHeight="125%" anchor="middle" family="微软雅黑" size="13px" weight="400" font-style="" opacity="1" y="16.375" transform="rotate(0)"><tspan id="SvgjsTspan1056" dy="16" x="48"><tspan id="SvgjsTspan1057" style="text-decoration:;">咪咕js-sdk</tspan></tspan></text></g></g><g id="SvgjsG1058" transform="translate(188,90)"><path id="SvgjsPath1059" d="M 0 4Q 0 0 4 0L 128 0Q 132 0 132 4L 132 174Q 132 178 128 178L 4 178Q 0 178 0 174Z" stroke="rgba(33,41,48,1)" stroke-width="2" fill-opacity="1" fill="#ffffff"></path><g id="SvgjsG1060"><text id="SvgjsText1061" font-family="微软雅黑" text-anchor="middle" font-size="13px" width="112px" fill="#323232" font-weight="400" align="middle" lineHeight="125%" anchor="middle" family="微软雅黑" size="13px" weight="400" font-style="" opacity="1" y="78.375" transform="rotate(0)"><tspan id="SvgjsTspan1062" dy="16" x="66"><tspan id="SvgjsTspan1063" style="text-decoration:;">咪咕iframe</tspan></tspan></text></g></g><g id="SvgjsG1064"><path id="SvgjsPath1065" d="M141 179C 159.2 179 168.8 179 184.39999999999998 179" stroke="#323232" stroke-width="2" fill="none" marker-end="url(#SvgjsMarker1066)"></path></g><g id="SvgjsG1068"><path id="SvgjsPath1069" d="M92 93C 92 116.6 92 128.39999999999998 92 148.39999999999998" stroke="#323232" stroke-width="2" fill="none" marker-end="url(#SvgjsMarker1070)"></path></g><g id="SvgjsG1072" transform="translate(151,148)"><path id="SvgjsPath1073" d="M 0 13C 0 -4.333333333333333 26 -4.333333333333333 26 13C 26 30.333333333333332 0 30.333333333333332 0 13Z" stroke="rgba(33,41,48,1)" stroke-width="2" fill-opacity="1" fill="#ffffff"></path><g id="SvgjsG1074"><text id="SvgjsText1075" font-family="微软雅黑" text-anchor="middle" font-size="13px" width="6px" fill="#323232" font-weight="400" align="middle" lineHeight="125%" anchor="middle" family="微软雅黑" size="13px" weight="400" font-style="" opacity="1" y="2.375" transform="rotate(0)"><tspan id="SvgjsTspan1076" dy="16" x="13"><tspan id="SvgjsTspan1077" style="text-decoration:;">2</tspan></tspan></text></g></g><g id="SvgjsG1078" transform="translate(60,106)"><path id="SvgjsPath1079" d="M 0 13C 0 -4.333333333333333 26 -4.333333333333333 26 13C 26 30.333333333333332 0 30.333333333333332 0 13Z" stroke="rgba(33,41,48,1)" stroke-width="2" fill-opacity="1" fill="#ffffff"></path><g id="SvgjsG1080"><text id="SvgjsText1081" font-family="微软雅黑" text-anchor="middle" font-size="13px" width="6px" fill="#323232" font-weight="400" align="middle" lineHeight="125%" anchor="middle" family="微软雅黑" size="13px" weight="400" font-style="" opacity="1" y="2.375" transform="rotate(0)"><tspan id="SvgjsTspan1082" dy="16" x="13"><tspan id="SvgjsTspan1083" style="text-decoration:;">1</tspan></tspan></text></g></g><g id="SvgjsG1084" transform="translate(368,63)"><path id="SvgjsPath1085" d="M 0 0L 151 0L 167 16L 167 170L 0 170L 0 0Z" stroke="none" fill-opacity="1" fill="#fff7bc"></path><path id="SvgjsPath1086" d="M 151 0L 151 16L 167 16Z" stroke="none" fill-opacity="1" fill="#e4d089"></path><path id="SvgjsPath1087" d="M 0 0L 151 0L 167 16L 167 170L 0 170L 0 0Z" stroke="none" fill="none"></path><g id="SvgjsG1088"><text id="SvgjsText1089" font-family="微软雅黑" text-anchor="start" font-size="13px" width="147px" fill="#323232" font-weight="400" align="middle" lineHeight="125%" anchor="start" family="微软雅黑" size="13px" weight="400" font-style="" opacity="1" y="9.375" transform="rotate(0)"><tspan id="SvgjsTspan1090" dy="16" x="10"><tspan id="SvgjsTspan1091" style="text-decoration:;">1. 业务端订购时调用咪咕</tspan></tspan><tspan id="SvgjsTspan1092" dy="16" x="10"><tspan id="SvgjsTspan1093" style="text-decoration:;">js-sdk的订购方法，并传</tspan></tspan><tspan id="SvgjsTspan1094" dy="16" x="10"><tspan id="SvgjsTspan1095" style="text-decoration:;">递回调函数（用于接收订</tspan></tspan><tspan id="SvgjsTspan1096" dy="16" x="10"><tspan id="SvgjsTspan1097" style="text-decoration:;">购结果）</tspan></tspan><tspan id="SvgjsTspan1098" dy="16" x="10"><tspan id="SvgjsTspan1099" style="text-decoration:;"> </tspan></tspan><tspan id="SvgjsTspan1100" dy="16" x="10"><tspan id="SvgjsTspan1101" style="text-decoration:;">2. js-sdk通过接口请求查</tspan></tspan><tspan id="SvgjsTspan1102" dy="16" x="10"><tspan id="SvgjsTspan1103" style="text-decoration:;">询订购策略相关的参数，</tspan></tspan><tspan id="SvgjsTspan1104" dy="16" x="10"><tspan id="SvgjsTspan1105" style="text-decoration:;">创建iframe并拉起支付界</tspan></tspan><tspan id="SvgjsTspan1106" dy="16" x="10"><tspan id="SvgjsTspan1107" style="text-decoration:;">面</tspan></tspan></text></g></g></svg>