<svg id="SvgjsSvg1001" width="487" height="231" xmlns="http://www.w3.org/2000/svg" version="1.1" xmlns:xlink="http://www.w3.org/1999/xlink" xmlns:svgjs="http://svgjs.com/svgjs"><defs id="SvgjsDefs1002"><marker id="SvgjsMarker1024" markerWidth="14" markerHeight="10" refX="10" refY="5" viewBox="0 0 14 10" orient="auto" markerUnits="userSpaceOnUse" stroke-dasharray="0,0"><path id="SvgjsPath1025" d="M0,0 L14,5 L0,10 L0,0" fill="#323232" stroke="#323232" stroke-width="1"></path></marker><marker id="SvgjsMarker1044" markerWidth="14" markerHeight="10" refX="10" refY="5" viewBox="0 0 14 10" orient="auto" markerUnits="userSpaceOnUse" stroke-dasharray="0,0"><path id="SvgjsPath1045" d="M0,0 L14,5 L0,10 L0,0" fill="#323232" stroke="#323232" stroke-width="1"></path></marker><marker id="SvgjsMarker1048" markerWidth="14" markerHeight="10" refX="10" refY="5" viewBox="0 0 14 10" orient="auto" markerUnits="userSpaceOnUse" stroke-dasharray="0,0"><path id="SvgjsPath1049" d="M0,0 L14,5 L0,10 L0,0" fill="#323232" stroke="#323232" stroke-width="1"></path></marker></defs><g id="SvgjsG1008" transform="translate(25,74)"><path id="SvgjsPath1009" d="M 0 35C 0 -11.666666666666666 70 -11.666666666666666 70 35C 70 81.66666666666667 0 81.66666666666667 0 35Z" stroke="rgba(33,41,48,1)" stroke-width="2" fill-opacity="1" fill="#ffffff"></path><g id="SvgjsG1010"><text id="SvgjsText1011" font-family="微软雅黑" text-anchor="middle" font-size="13px" width="50px" fill="#323232" font-weight="400" align="middle" lineHeight="125%" anchor="middle" family="微软雅黑" size="13px" weight="400" font-style="" opacity="1" y="24.375" transform="rotate(0)"><tspan id="SvgjsTspan1012" dy="16" x="35"><tspan id="SvgjsTspan1013" style="text-decoration:;">业务端</tspan></tspan></text></g></g><g id="SvgjsG1014" transform="translate(196,74)"><path id="SvgjsPath1015" d="M 0 35C 0 -11.666666666666666 70 -11.666666666666666 70 35C 70 81.66666666666667 0 81.66666666666667 0 35Z" stroke="rgba(33,41,48,1)" stroke-width="2" fill-opacity="1" fill="#ffffff"></path><g id="SvgjsG1016"><text id="SvgjsText1017" font-family="微软雅黑" text-anchor="middle" font-size="13px" width="50px" fill="#323232" font-weight="400" align="middle" lineHeight="125%" anchor="middle" family="微软雅黑" size="13px" weight="400" font-style="" opacity="1" y="15.875" transform="rotate(0)"><tspan id="SvgjsTspan1018" dy="16" x="35"><tspan id="SvgjsTspan1019" style="text-decoration:;">mock</tspan></tspan><tspan id="SvgjsTspan1020" dy="16" x="35"><tspan id="SvgjsTspan1021" style="text-decoration:;">接口</tspan></tspan></text></g></g><g id="SvgjsG1022"><path id="SvgjsPath1023" d="M95.99669814912835 109.0811960560874C 135.24626580290652 112.5210920070054 155.75373419709348 112.5210920070054 192.41188666313798 109.29230580191467" stroke="#323232" stroke-width="2" fill="none" marker-end="url(#SvgjsMarker1024)"></path></g><g id="SvgjsG1026" transform="translate(392,136)"><path id="SvgjsPath1027" d="M 0 35C 0 -11.666666666666666 70 -11.666666666666666 70 35C 70 81.66666666666667 0 81.66666666666667 0 35Z" stroke="rgba(33,41,48,1)" stroke-width="2" fill-opacity="1" fill="#ffffff"></path><g id="SvgjsG1028"><text id="SvgjsText1029" font-family="微软雅黑" text-anchor="middle" font-size="13px" width="50px" fill="#323232" font-weight="400" align="middle" lineHeight="125%" anchor="middle" family="微软雅黑" size="13px" weight="400" font-style="" opacity="1" y="7.875" transform="rotate(0)"><tspan id="SvgjsTspan1030" dy="16" x="35"><tspan id="SvgjsTspan1031" style="text-decoration:;">本地</tspan></tspan><tspan id="SvgjsTspan1032" dy="16" x="35"><tspan id="SvgjsTspan1033" style="text-decoration:;">mock</tspan></tspan><tspan id="SvgjsTspan1034" dy="16" x="35"><tspan id="SvgjsTspan1035" style="text-decoration:;">数据</tspan></tspan></text></g></g><g id="SvgjsG1036" transform="translate(392,25)"><path id="SvgjsPath1037" d="M 0 35C 0 -11.666666666666666 70 -11.666666666666666 70 35C 70 81.66666666666667 0 81.66666666666667 0 35Z" stroke="rgba(33,41,48,1)" stroke-width="2" fill-opacity="1" fill="#ffffff"></path><g id="SvgjsG1038"><text id="SvgjsText1039" font-family="微软雅黑" text-anchor="middle" font-size="13px" width="50px" fill="#323232" font-weight="400" align="middle" lineHeight="125%" anchor="middle" family="微软雅黑" size="13px" weight="400" font-style="" opacity="1" y="24.375" transform="rotate(0)"><tspan id="SvgjsTspan1040" dy="16" x="35"><tspan id="SvgjsTspan1041" style="text-decoration:;">接口</tspan></tspan></text></g></g><g id="SvgjsG1042"><path id="SvgjsPath1043" d="M315.9997414695641 108.97726249719662C 350.95290200375666 115.33946665802975 355.6313887176409 63.18184119538745 388.5301316247154 60.95917332020856" stroke="#323232" stroke-width="2" fill="none" marker-end="url(#SvgjsMarker1044)"></path></g><g id="SvgjsG1046"><path id="SvgjsPath1047" d="M315.9392889639591 109.34312715162852C 353.9426408790577 115.8666382870183 352.6070806665073 174.4464338648718 388.41826866703184 170.6377836855767" stroke="#323232" stroke-width="2" fill="none" marker-end="url(#SvgjsMarker1048)"></path></g><g id="SvgjsG1050" transform="translate(256,89)"><path id="SvgjsPath1051" d="M 0 20C 0 -6.666666666666667 59 -6.666666666666667 59 20C 59 46.666666666666664 0 46.666666666666664 0 20Z" stroke="rgba(33,41,48,1)" stroke-width="2" fill-opacity="1" fill="#ffffff"></path><g id="SvgjsG1052"><text id="SvgjsText1053" font-family="微软雅黑" text-anchor="middle" font-size="13px" width="39px" fill="#323232" font-weight="400" align="middle" lineHeight="125%" anchor="middle" family="微软雅黑" size="13px" weight="400" font-style="" opacity="1" y="9.375" transform="rotate(0)"><tspan id="SvgjsTspan1054" dy="16" x="29.5"><tspan id="SvgjsTspan1055" style="text-decoration:;">switch</tspan></tspan></text></g></g></svg>