<svg id="SvgjsSvg1098" width="673" height="170" xmlns="http://www.w3.org/2000/svg" version="1.1" xmlns:xlink="http://www.w3.org/1999/xlink" xmlns:svgjs="http://svgjs.com/svgjs"><defs id="SvgjsDefs1099"><marker id="SvgjsMarker1122" markerWidth="14" markerHeight="10" refX="10" refY="5" viewBox="0 0 14 10" orient="auto" markerUnits="userSpaceOnUse" stroke-dasharray="0,0"><path id="SvgjsPath1123" d="M0,0 L14,5 L0,10 L0,0" fill="#323232" stroke="#323232" stroke-width="1"></path></marker><marker id="SvgjsMarker1132" markerWidth="14" markerHeight="10" refX="10" refY="5" viewBox="0 0 14 10" orient="auto" markerUnits="userSpaceOnUse" stroke-dasharray="0,0"><path id="SvgjsPath1133" d="M0,0 L14,5 L0,10 L0,0" fill="#323232" stroke="#323232" stroke-width="1"></path></marker></defs><g id="SvgjsG1100" transform="translate(235,25)"><path id="SvgjsPath1101" d="M 0 4Q 0 0 4 0L 409 0Q 413 0 413 4L 413 116Q 413 120 409 120L 4 120Q 0 120 0 116Z" stroke="rgba(231,79,76,1)" stroke-width="2" fill-opacity="1" fill="#ffffff"></path><g id="SvgjsG1102"><text id="SvgjsText1103" font-family="微软雅黑" text-anchor="middle" font-size="13px" width="393px" fill="#323232" font-weight="400" align="top" lineHeight="125%" anchor="middle" family="微软雅黑" size="13px" weight="400" font-style="" opacity="1" y="-2.625" transform="rotate(0)"><tspan id="SvgjsTspan1104" dy="16" x="206.5"><tspan id="SvgjsTspan1105" style="text-decoration:;"> </tspan></tspan><tspan id="SvgjsTspan1106" dy="16" x="206.5"><tspan id="SvgjsTspan1107" style="text-decoration:;">合并作为一个异步任务提交</tspan></tspan></text></g></g><g id="SvgjsG1108" transform="translate(25,73)"><path id="SvgjsPath1109" d="M 0 4Q 0 0 4 0L 139 0Q 143 0 143 4L 143 50Q 143 54 139 54L 4 54Q 0 54 0 50Z" stroke="rgba(33,41,48,1)" stroke-width="2" fill-opacity="1" fill="#ffffff"></path><g id="SvgjsG1110"><text id="SvgjsText1111" font-family="微软雅黑" text-anchor="middle" font-size="13px" width="123px" fill="#323232" font-weight="400" align="middle" lineHeight="125%" anchor="middle" family="微软雅黑" size="13px" weight="400" font-style="" opacity="1" y="16.375" transform="rotate(0)"><tspan id="SvgjsTspan1112" dy="16" x="71.5"><tspan id="SvgjsTspan1113" style="text-decoration:;">开通基础彩铃功能</tspan></tspan></text></g></g><g id="SvgjsG1114" transform="translate(258,73)"><path id="SvgjsPath1115" d="M 0 4Q 0 0 4 0L 139 0Q 143 0 143 4L 143 50Q 143 54 139 54L 4 54Q 0 54 0 50Z" stroke="rgba(33,41,48,1)" stroke-width="2" fill-opacity="1" fill="#ffffff"></path><g id="SvgjsG1116"><text id="SvgjsText1117" font-family="微软雅黑" text-anchor="middle" font-size="13px" width="123px" fill="#323232" font-weight="400" align="middle" lineHeight="125%" anchor="middle" family="微软雅黑" size="13px" weight="400" font-style="" opacity="1" y="16.375" transform="rotate(0)"><tspan id="SvgjsTspan1118" dy="16" x="71.5"><tspan id="SvgjsTspan1119" style="text-decoration:;">订购VIP业务</tspan></tspan></text></g></g><g id="SvgjsG1120"><path id="SvgjsPath1121" d="M169 100L213 100L213 100L254.39999999999998 100" stroke="#323232" stroke-width="2" fill="none" marker-end="url(#SvgjsMarker1122)"></path></g><g id="SvgjsG1124" transform="translate(491,73)"><path id="SvgjsPath1125" d="M 0 4Q 0 0 4 0L 139 0Q 143 0 143 4L 143 50Q 143 54 139 54L 4 54Q 0 54 0 50Z" stroke="rgba(33,41,48,1)" stroke-width="2" fill-opacity="1" fill="#ffffff"></path><g id="SvgjsG1126"><text id="SvgjsText1127" font-family="微软雅黑" text-anchor="middle" font-size="13px" width="123px" fill="#323232" font-weight="400" align="middle" lineHeight="125%" anchor="middle" family="微软雅黑" size="13px" weight="400" font-style="" opacity="1" y="16.375" transform="rotate(0)"><tspan id="SvgjsTspan1128" dy="16" x="71.5"><tspan id="SvgjsTspan1129" style="text-decoration:;">提交彩铃设置任务</tspan></tspan></text></g></g><g id="SvgjsG1130"><path id="SvgjsPath1131" d="M402 100L446 100L446 100L487.4 100" stroke="#323232" stroke-width="2" fill="none" marker-end="url(#SvgjsMarker1132)"></path></g></svg>