<svg id="SvgjsSvg1062" width="689" height="170" xmlns="http://www.w3.org/2000/svg" version="1.1" xmlns:xlink="http://www.w3.org/1999/xlink" xmlns:svgjs="http://svgjs.com/svgjs"><defs id="SvgjsDefs1063"><marker id="SvgjsMarker1086" markerWidth="14" markerHeight="10" refX="10" refY="5" viewBox="0 0 14 10" orient="auto" markerUnits="userSpaceOnUse" stroke-dasharray="0,0"><path id="SvgjsPath1087" d="M0,0 L14,5 L0,10 L0,0" fill="#323232" stroke="#323232" stroke-width="1"></path></marker><marker id="SvgjsMarker1096" markerWidth="14" markerHeight="10" refX="10" refY="5" viewBox="0 0 14 10" orient="auto" markerUnits="userSpaceOnUse" stroke-dasharray="0,0"><path id="SvgjsPath1097" d="M0,0 L14,5 L0,10 L0,0" fill="#323232" stroke="#323232" stroke-width="1"></path></marker></defs><g id="SvgjsG1064" transform="translate(25,25)"><path id="SvgjsPath1065" d="M 0 4Q 0 0 4 0L 635 0Q 639 0 639 4L 639 116Q 639 120 635 120L 4 120Q 0 120 0 116Z" stroke="rgba(231,79,76,1)" stroke-width="2" fill-opacity="1" fill="#ffffff"></path><g id="SvgjsG1066"><text id="SvgjsText1067" font-family="微软雅黑" text-anchor="middle" font-size="13px" width="619px" fill="#323232" font-weight="400" align="top" lineHeight="125%" anchor="middle" family="微软雅黑" size="13px" weight="400" font-style="" opacity="1" y="-2.625" transform="rotate(0)"><tspan id="SvgjsTspan1068" dy="16" x="319.5"><tspan id="SvgjsTspan1069" style="text-decoration:;"> </tspan></tspan><tspan id="SvgjsTspan1070" dy="16" x="319.5"><tspan id="SvgjsTspan1071" style="text-decoration:;">合并作为一个异步任务提交</tspan></tspan></text></g></g><g id="SvgjsG1072" transform="translate(41,73)"><path id="SvgjsPath1073" d="M 0 4Q 0 0 4 0L 139 0Q 143 0 143 4L 143 50Q 143 54 139 54L 4 54Q 0 54 0 50Z" stroke="rgba(33,41,48,1)" stroke-width="2" fill-opacity="1" fill="#ffffff"></path><g id="SvgjsG1074"><text id="SvgjsText1075" font-family="微软雅黑" text-anchor="middle" font-size="13px" width="123px" fill="#323232" font-weight="400" align="middle" lineHeight="125%" anchor="middle" family="微软雅黑" size="13px" weight="400" font-style="" opacity="1" y="16.375" transform="rotate(0)"><tspan id="SvgjsTspan1076" dy="16" x="71.5"><tspan id="SvgjsTspan1077" style="text-decoration:;">开通基础彩铃功能</tspan></tspan></text></g></g><g id="SvgjsG1078" transform="translate(274,73)"><path id="SvgjsPath1079" d="M 0 4Q 0 0 4 0L 139 0Q 143 0 143 4L 143 50Q 143 54 139 54L 4 54Q 0 54 0 50Z" stroke="rgba(33,41,48,1)" stroke-width="2" fill-opacity="1" fill="#ffffff"></path><g id="SvgjsG1080"><text id="SvgjsText1081" font-family="微软雅黑" text-anchor="middle" font-size="13px" width="123px" fill="#323232" font-weight="400" align="middle" lineHeight="125%" anchor="middle" family="微软雅黑" size="13px" weight="400" font-style="" opacity="1" y="16.375" transform="rotate(0)"><tspan id="SvgjsTspan1082" dy="16" x="71.5"><tspan id="SvgjsTspan1083" style="text-decoration:;">订购VIP业务</tspan></tspan></text></g></g><g id="SvgjsG1084"><path id="SvgjsPath1085" d="M185 100L229 100L229 100L270.4 100" stroke="#323232" stroke-width="2" fill="none" marker-end="url(#SvgjsMarker1086)"></path></g><g id="SvgjsG1088" transform="translate(507,73)"><path id="SvgjsPath1089" d="M 0 4Q 0 0 4 0L 139 0Q 143 0 143 4L 143 50Q 143 54 139 54L 4 54Q 0 54 0 50Z" stroke="rgba(33,41,48,1)" stroke-width="2" fill-opacity="1" fill="#ffffff"></path><g id="SvgjsG1090"><text id="SvgjsText1091" font-family="微软雅黑" text-anchor="middle" font-size="13px" width="123px" fill="#323232" font-weight="400" align="middle" lineHeight="125%" anchor="middle" family="微软雅黑" size="13px" weight="400" font-style="" opacity="1" y="16.375" transform="rotate(0)"><tspan id="SvgjsTspan1092" dy="16" x="71.5"><tspan id="SvgjsTspan1093" style="text-decoration:;">提交彩铃设置任务</tspan></tspan></text></g></g><g id="SvgjsG1094"><path id="SvgjsPath1095" d="M418 100L462 100L462 100L503.4 100" stroke="#323232" stroke-width="2" fill="none" marker-end="url(#SvgjsMarker1096)"></path></g></svg>