<svg id="SvgjsSvg1001" width="400" height="120" xmlns="http://www.w3.org/2000/svg" version="1.1" xmlns:xlink="http://www.w3.org/1999/xlink" xmlns:svgjs="http://svgjs.com/svgjs"><defs id="SvgjsDefs1002"><marker id="SvgjsMarker1028" markerWidth="14" markerHeight="10" refX="10" refY="5" viewBox="0 0 14 10" orient="auto" markerUnits="userSpaceOnUse" stroke-dasharray="0,0"><path id="SvgjsPath1029" d="M0,0 L14,5 L0,10 L0,0" fill="#323232" stroke="#323232" stroke-width="1"></path></marker><marker id="SvgjsMarker1032" markerWidth="14" markerHeight="10" refX="10" refY="5" viewBox="0 0 14 10" orient="auto" markerUnits="userSpaceOnUse" stroke-dasharray="0,0"><path id="SvgjsPath1033" d="M0,0 L14,5 L0,10 L0,0" fill="#323232" stroke="#323232" stroke-width="1"></path></marker></defs><g id="SvgjsG1008" transform="translate(25,25)"><path id="SvgjsPath1009" d="M 0 35C 0 -11.666666666666666 70 -11.666666666666666 70 35C 70 81.66666666666667 0 81.66666666666667 0 35Z" stroke="rgba(33,41,48,1)" stroke-width="2" fill-opacity="1" fill="#358e90"></path><g id="SvgjsG1010"><text id="SvgjsText1011" font-family="微软雅黑" text-anchor="middle" font-size="13px" width="50px" fill="#ffffff" font-weight="700" align="middle" lineHeight="125%" anchor="middle" family="微软雅黑" size="13px" weight="700" font-style="" opacity="1" y="24.375" transform="rotate(0)"><tspan id="SvgjsTspan1012" dy="16" x="35"><tspan id="SvgjsTspan1013" style="text-decoration:;">feature</tspan></tspan></text></g></g><g id="SvgjsG1014" transform="translate(165,25)"><path id="SvgjsPath1015" d="M 0 35C 0 -11.666666666666666 70 -11.666666666666666 70 35C 70 81.66666666666667 0 81.66666666666667 0 35Z" stroke="rgba(33,41,48,1)" stroke-width="2" fill-opacity="1" fill="#ffffff"></path><g id="SvgjsG1016"><text id="SvgjsText1017" font-family="微软雅黑" text-anchor="middle" font-size="13px" width="50px" fill="#323232" font-weight="400" align="middle" lineHeight="125%" anchor="middle" family="微软雅黑" size="13px" weight="400" font-style="" opacity="1" y="24.375" transform="rotate(0)"><tspan id="SvgjsTspan1018" dy="16" x="35"><tspan id="SvgjsTspan1019" style="text-decoration:;">develop</tspan></tspan></text></g></g><g id="SvgjsG1020" transform="translate(305,25)"><path id="SvgjsPath1021" d="M 0 35C 0 -11.666666666666666 70 -11.666666666666666 70 35C 70 81.66666666666667 0 81.66666666666667 0 35Z" stroke="rgba(33,41,48,1)" stroke-width="2" fill-opacity="1" fill="#ffffff"></path><g id="SvgjsG1022"><text id="SvgjsText1023" font-family="微软雅黑" text-anchor="middle" font-size="13px" width="50px" fill="#323232" font-weight="400" align="middle" lineHeight="125%" anchor="middle" family="微软雅黑" size="13px" weight="400" font-style="" opacity="1" y="24.375" transform="rotate(0)"><tspan id="SvgjsTspan1024" dy="16" x="35"><tspan id="SvgjsTspan1025" style="text-decoration:;">master</tspan></tspan></text></g></g><g id="SvgjsG1026"><path id="SvgjsPath1027" d="M96 60L130 60L130 60L161.39999999999998 60" stroke="#323232" stroke-width="2" fill="none" marker-end="url(#SvgjsMarker1028)"></path></g><g id="SvgjsG1030"><path id="SvgjsPath1031" d="M236 60L270 60L270 60L301.4 60" stroke="#323232" stroke-width="2" fill="none" marker-end="url(#SvgjsMarker1032)"></path></g></svg>