<svg id="SvgjsSvg1842" width="1891" height="1350.046875" xmlns="http://www.w3.org/2000/svg" version="1.1" xmlns:xlink="http://www.w3.org/1999/xlink" xmlns:svgjs="http://svgjs.com/svgjs"><defs id="SvgjsDefs1843"><marker id="SvgjsMarker1858" markerWidth="16" markerHeight="12" refX="16" refY="6" viewBox="0 0 16 12" orient="auto" markerUnits="userSpaceOnUse" stroke-dasharray="0,0"><path id="SvgjsPath1859" d="M0,2 L14,6 L0,11 L0,2" fill="#323232" stroke="#323232" stroke-width="2"></path></marker><marker id="SvgjsMarker1868" markerWidth="16" markerHeight="12" refX="16" refY="6" viewBox="0 0 16 12" orient="auto" markerUnits="userSpaceOnUse" stroke-dasharray="0,0"><path id="SvgjsPath1869" d="M0,2 L14,6 L0,11 L0,2" fill="#323232" stroke="#323232" stroke-width="2"></path></marker><marker id="SvgjsMarker1878" markerWidth="16" markerHeight="12" refX="16" refY="6" viewBox="0 0 16 12" orient="auto" markerUnits="userSpaceOnUse" stroke-dasharray="0,0"><path id="SvgjsPath1879" d="M0,2 L14,6 L0,11 L0,2" fill="#323232" stroke="#323232" stroke-width="2"></path></marker><marker id="SvgjsMarker1892" markerWidth="16" markerHeight="12" refX="16" refY="6" viewBox="0 0 16 12" orient="auto" markerUnits="userSpaceOnUse" stroke-dasharray="0,0"><path id="SvgjsPath1893" d="M0,2 L14,6 L0,11 L0,2" fill="#323232" stroke="#323232" stroke-width="2"></path></marker><marker id="SvgjsMarker1902" markerWidth="16" markerHeight="12" refX="16" refY="6" viewBox="0 0 16 12" orient="auto" markerUnits="userSpaceOnUse" stroke-dasharray="0,0"><path id="SvgjsPath1903" d="M0,2 L14,6 L0,11 L0,2" fill="#323232" stroke="#323232" stroke-width="2"></path></marker><marker id="SvgjsMarker1914" markerWidth="16" markerHeight="12" refX="16" refY="6" viewBox="0 0 16 12" orient="auto" markerUnits="userSpaceOnUse" stroke-dasharray="0,0"><path id="SvgjsPath1915" d="M0,2 L14,6 L0,11 L0,2" fill="#323232" stroke="#323232" stroke-width="2"></path></marker><marker id="SvgjsMarker1918" markerWidth="16" markerHeight="12" refX="16" refY="6" viewBox="0 0 16 12" orient="auto" markerUnits="userSpaceOnUse" stroke-dasharray="0,0"><path id="SvgjsPath1919" d="M0,2 L14,6 L0,11 L0,2" fill="#323232" stroke="#323232" stroke-width="2"></path></marker><marker id="SvgjsMarker1922" markerWidth="16" markerHeight="12" refX="16" refY="6" viewBox="0 0 16 12" orient="auto" markerUnits="userSpaceOnUse" stroke-dasharray="0,0"><path id="SvgjsPath1923" d="M0,2 L14,6 L0,11 L0,2" fill="#323232" stroke="#323232" stroke-width="2"></path></marker><marker id="SvgjsMarker1932" markerWidth="16" markerHeight="12" refX="16" refY="6" viewBox="0 0 16 12" orient="auto" markerUnits="userSpaceOnUse" stroke-dasharray="0,0"><path id="SvgjsPath1933" d="M0,2 L14,6 L0,11 L0,2" fill="#323232" stroke="#323232" stroke-width="2"></path></marker><marker id="SvgjsMarker1936" markerWidth="16" markerHeight="12" refX="16" refY="6" viewBox="0 0 16 12" orient="auto" markerUnits="userSpaceOnUse" stroke-dasharray="0,0"><path id="SvgjsPath1937" d="M0,2 L14,6 L0,11 L0,2" fill="#323232" stroke="#323232" stroke-width="2"></path></marker><marker id="SvgjsMarker1940" markerWidth="16" markerHeight="12" refX="16" refY="6" viewBox="0 0 16 12" orient="auto" markerUnits="userSpaceOnUse" stroke-dasharray="0,0"><path id="SvgjsPath1941" d="M0,2 L14,6 L0,11 L0,2" fill="#323232" stroke="#323232" stroke-width="2"></path></marker><marker id="SvgjsMarker1944" markerWidth="16" markerHeight="12" refX="16" refY="6" viewBox="0 0 16 12" orient="auto" markerUnits="userSpaceOnUse" stroke-dasharray="0,0"><path id="SvgjsPath1945" d="M0,2 L14,6 L0,11 L0,2" fill="#323232" stroke="#323232" stroke-width="2"></path></marker><marker id="SvgjsMarker2048" markerWidth="16" markerHeight="12" refX="16" refY="6" viewBox="0 0 16 12" orient="auto" markerUnits="userSpaceOnUse" stroke-dasharray="0,0"><path id="SvgjsPath2049" d="M0,2 L14,6 L0,11 L0,2" fill="#323232" stroke="#323232" stroke-width="2"></path></marker><marker id="SvgjsMarker2052" markerWidth="16" markerHeight="12" refX="16" refY="6" viewBox="0 0 16 12" orient="auto" markerUnits="userSpaceOnUse" stroke-dasharray="0,0"><path id="SvgjsPath2053" d="M0,2 L14,6 L0,11 L0,2" fill="#323232" stroke="#323232" stroke-width="2"></path></marker><marker id="SvgjsMarker2056" markerWidth="16" markerHeight="12" refX="16" refY="6" viewBox="0 0 16 12" orient="auto" markerUnits="userSpaceOnUse" stroke-dasharray="0,0"><path id="SvgjsPath2057" d="M0,2 L14,6 L0,11 L0,2" fill="#323232" stroke="#323232" stroke-width="2"></path></marker><marker id="SvgjsMarker2060" markerWidth="16" markerHeight="12" refX="16" refY="6" viewBox="0 0 16 12" orient="auto" markerUnits="userSpaceOnUse" stroke-dasharray="0,0"><path id="SvgjsPath2061" d="M0,2 L14,6 L0,11 L0,2" fill="#323232" stroke="#323232" stroke-width="2"></path></marker><marker id="SvgjsMarker2064" markerWidth="16" markerHeight="12" refX="16" refY="6" viewBox="0 0 16 12" orient="auto" markerUnits="userSpaceOnUse" stroke-dasharray="0,0"><path id="SvgjsPath2065" d="M0,2 L14,6 L0,11 L0,2" fill="#323232" stroke="#323232" stroke-width="2"></path></marker><marker id="SvgjsMarker2068" markerWidth="16" markerHeight="12" refX="16" refY="6" viewBox="0 0 16 12" orient="auto" markerUnits="userSpaceOnUse" stroke-dasharray="0,0"><path id="SvgjsPath2069" d="M0,2 L14,6 L0,11 L0,2" fill="#323232" stroke="#323232" stroke-width="2"></path></marker><marker id="SvgjsMarker2072" markerWidth="16" markerHeight="12" refX="16" refY="6" viewBox="0 0 16 12" orient="auto" markerUnits="userSpaceOnUse" stroke-dasharray="0,0"><path id="SvgjsPath2073" d="M0,2 L14,6 L0,11 L0,2" fill="#323232" stroke="#323232" stroke-width="2"></path></marker><marker id="SvgjsMarker2076" markerWidth="16" markerHeight="12" refX="16" refY="6" viewBox="0 0 16 12" orient="auto" markerUnits="userSpaceOnUse" stroke-dasharray="0,0"><path id="SvgjsPath2077" d="M0,2 L14,6 L0,11 L0,2" fill="#323232" stroke="#323232" stroke-width="2"></path></marker><marker id="SvgjsMarker2080" markerWidth="16" markerHeight="12" refX="16" refY="6" viewBox="0 0 16 12" orient="auto" markerUnits="userSpaceOnUse" stroke-dasharray="0,0"><path id="SvgjsPath2081" d="M0,2 L14,6 L0,11 L0,2" fill="#323232" stroke="#323232" stroke-width="2"></path></marker><marker id="SvgjsMarker2084" markerWidth="16" markerHeight="12" refX="16" refY="6" viewBox="0 0 16 12" orient="auto" markerUnits="userSpaceOnUse" stroke-dasharray="0,0"><path id="SvgjsPath2085" d="M0,2 L14,6 L0,11 L0,2" fill="#323232" stroke="#323232" stroke-width="2"></path></marker><marker id="SvgjsMarker2088" markerWidth="16" markerHeight="12" refX="16" refY="6" viewBox="0 0 16 12" orient="auto" markerUnits="userSpaceOnUse" stroke-dasharray="0,0"><path id="SvgjsPath2089" d="M0,2 L14,6 L0,11 L0,2" fill="#323232" stroke="#323232" stroke-width="2"></path></marker><marker id="SvgjsMarker2092" markerWidth="16" markerHeight="12" refX="16" refY="6" viewBox="0 0 16 12" orient="auto" markerUnits="userSpaceOnUse" stroke-dasharray="0,0"><path id="SvgjsPath2093" d="M0,2 L14,6 L0,11 L0,2" fill="#323232" stroke="#323232" stroke-width="2"></path></marker><marker id="SvgjsMarker2096" markerWidth="16" markerHeight="12" refX="16" refY="6" viewBox="0 0 16 12" orient="auto" markerUnits="userSpaceOnUse" stroke-dasharray="0,0"><path id="SvgjsPath2097" d="M0,2 L14,6 L0,11 L0,2" fill="#323232" stroke="#323232" stroke-width="2"></path></marker><marker id="SvgjsMarker2100" markerWidth="16" markerHeight="12" refX="16" refY="6" viewBox="0 0 16 12" orient="auto" markerUnits="userSpaceOnUse" stroke-dasharray="0,0"><path id="SvgjsPath2101" d="M0,2 L14,6 L0,11 L0,2" fill="#323232" stroke="#323232" stroke-width="2"></path></marker><marker id="SvgjsMarker2104" markerWidth="16" markerHeight="12" refX="16" refY="6" viewBox="0 0 16 12" orient="auto" markerUnits="userSpaceOnUse" stroke-dasharray="0,0"><path id="SvgjsPath2105" d="M0,2 L14,6 L0,11 L0,2" fill="#323232" stroke="#323232" stroke-width="2"></path></marker><marker id="SvgjsMarker2108" markerWidth="16" markerHeight="12" refX="16" refY="6" viewBox="0 0 16 12" orient="auto" markerUnits="userSpaceOnUse" stroke-dasharray="0,0"><path id="SvgjsPath2109" d="M0,2 L14,6 L0,11 L0,2" fill="#323232" stroke="#323232" stroke-width="2"></path></marker><marker id="SvgjsMarker2112" markerWidth="16" markerHeight="12" refX="16" refY="6" viewBox="0 0 16 12" orient="auto" markerUnits="userSpaceOnUse" stroke-dasharray="0,0"><path id="SvgjsPath2113" d="M0,2 L14,6 L0,11 L0,2" fill="#323232" stroke="#323232" stroke-width="2"></path></marker><marker id="SvgjsMarker2116" markerWidth="16" markerHeight="12" refX="16" refY="6" viewBox="0 0 16 12" orient="auto" markerUnits="userSpaceOnUse" stroke-dasharray="0,0"><path id="SvgjsPath2117" d="M0,2 L14,6 L0,11 L0,2" fill="#323232" stroke="#323232" stroke-width="2"></path></marker><marker id="SvgjsMarker2120" markerWidth="16" markerHeight="12" refX="16" refY="6" viewBox="0 0 16 12" orient="auto" markerUnits="userSpaceOnUse" stroke-dasharray="0,0"><path id="SvgjsPath2121" d="M0,2 L14,6 L0,11 L0,2" fill="#323232" stroke="#323232" stroke-width="2"></path></marker></defs><g id="SvgjsG1844" transform="translate(526.3634367956424,271.9957386363637)"><path id="SvgjsPath1845" d="M 0 42C 0 -14 84 -14 84 42C 84 98 0 98 0 42Z" stroke="rgba(50,50,50,1)" stroke-width="2" fill-opacity="1" fill="#ffffff"></path><g id="SvgjsG1846"><text id="SvgjsText1847" font-family="微软雅黑" text-anchor="middle" font-size="13px" width="64px" fill="#323232" font-weight="400" align="middle" anchor="middle" family="微软雅黑" size="13px" weight="400" font-style="" opacity="1" y="32.05" transform="rotate(0)"><tspan id="SvgjsTspan1848" dy="16" x="42"><tspan id="SvgjsTspan1849" style="text-decoration:;">buildStart</tspan></tspan></text></g></g><g id="SvgjsG1850" transform="translate(358.3634367956424,271.9957386363637)"><path id="SvgjsPath1851" d="M 0 42C 0 -14 84 -14 84 42C 84 98 0 98 0 42Z" stroke="rgba(50,50,50,1)" stroke-width="2" fill-opacity="1" fill="#ffffff"></path><g id="SvgjsG1852"><text id="SvgjsText1853" font-family="微软雅黑" text-anchor="middle" font-size="13px" width="64px" fill="#323232" font-weight="400" align="middle" anchor="middle" family="微软雅黑" size="13px" weight="400" font-style="" opacity="1" y="32.05" transform="rotate(0)"><tspan id="SvgjsTspan1854" dy="16" x="42"><tspan id="SvgjsTspan1855" style="text-decoration:;">options</tspan></tspan></text></g></g><g id="SvgjsG1856"><path id="SvgjsPath1857" d="M442.3634367956424 313.99573863636374C 475.835578651525 316.92417159268507 492.89129493975975 316.92417159268507 526.3634367956424 313.99573863636374" stroke="#323232" stroke-width="2" fill="none" marker-end="url(#SvgjsMarker1858)"></path></g><g id="SvgjsG1860" transform="translate(686.3634367956424,271.9957386363637)"><path id="SvgjsPath1861" d="M 0 42C 0 -14 84 -14 84 42C 84 98 0 98 0 42Z" stroke="rgba(50,50,50,1)" stroke-width="2" fill-opacity="1" fill="#ffffff"></path><g id="SvgjsG1862"><text id="SvgjsText1863" font-family="微软雅黑" text-anchor="middle" font-size="13px" width="64px" fill="#323232" font-weight="400" align="middle" anchor="middle" family="微软雅黑" size="13px" weight="400" font-style="" opacity="1" y="32.05" transform="rotate(0)"><tspan id="SvgjsTspan1864" dy="16" x="42"><tspan id="SvgjsTspan1865" style="text-decoration:;">resolveId </tspan></tspan></text></g></g><g id="SvgjsG1866"><path id="SvgjsPath1867" d="M610.3634367956424 313.99573863636374C 640.6477556176314 316.64527321589253 656.0791179736533 316.64527321589253 686.3634367956424 313.99573863636374" stroke="#323232" stroke-width="2" fill="none" marker-end="url(#SvgjsMarker1868)"></path></g><g id="SvgjsG1870" transform="translate(849.3634367956424,271.9957386363637)"><path id="SvgjsPath1871" d="M 0 42C 0 -14 84 -14 84 42C 84 98 0 98 0 42Z" stroke="rgba(50,50,50,1)" stroke-width="2" fill-opacity="1" fill="#ffffff"></path><g id="SvgjsG1872"><text id="SvgjsText1873" font-family="微软雅黑" text-anchor="middle" font-size="13px" width="64px" fill="#323232" font-weight="400" align="middle" anchor="middle" family="微软雅黑" size="13px" weight="400" font-style="" opacity="1" y="32.05" transform="rotate(0)"><tspan id="SvgjsTspan1874" dy="16" x="42"><tspan id="SvgjsTspan1875" style="text-decoration:;">load</tspan></tspan></text></g></g><g id="SvgjsG1876"><path id="SvgjsPath1877" d="M770.3634367956424 313.99573863636374C 801.8431892553415 316.7498601071897 817.8836843359433 316.74986010718976 849.3634367956424 313.99573863636374" stroke="#323232" stroke-width="2" fill="none" marker-end="url(#SvgjsMarker1878)"></path></g><g id="SvgjsG1880" transform="translate(686.3634367956424,126.99573863636363)"><path id="SvgjsPath1881" d="M 0 42C 0 -14 84 -14 84 42C 84 98 0 98 0 42Z" stroke="rgba(50,50,50,1)" stroke-width="2" fill-opacity="1" fill="#ffffff"></path><g id="SvgjsG1882"><text id="SvgjsText1883" font-family="微软雅黑" text-anchor="middle" font-size="13px" width="64px" fill="#323232" font-weight="400" align="middle" anchor="middle" family="微软雅黑" size="13px" weight="400" font-style="" opacity="1" y="16.05" transform="rotate(0)"><tspan id="SvgjsTspan1884" dy="16" x="42"><tspan id="SvgjsTspan1885" style="text-decoration:;">resolveDy</tspan></tspan><tspan id="SvgjsTspan1886" dy="16" x="42"><tspan id="SvgjsTspan1887" style="text-decoration:;">namicImp</tspan></tspan><tspan id="SvgjsTspan1888" dy="16" x="42"><tspan id="SvgjsTspan1889" style="text-decoration:;">ort</tspan></tspan></text></g></g><g id="SvgjsG1890"><path id="SvgjsPath1891" d="M770.3634367956424 168.99573863636365C 833.6825623509172 174.5354443068248 870.3634367956424 199.99573863636365 891.3634367956424 271.9957386363637" stroke="#323232" stroke-width="2" fill="none" marker-end="url(#SvgjsMarker1892)"></path></g><g id="SvgjsG1894" transform="translate(1008.3634367956424,271.9957386363637)"><path id="SvgjsPath1895" d="M 0 42C 0 -14 84 -14 84 42C 84 98 0 98 0 42Z" stroke="rgba(50,50,50,1)" stroke-width="2" fill-opacity="1" fill="#ffffff"></path><g id="SvgjsG1896"><text id="SvgjsText1897" font-family="微软雅黑" text-anchor="middle" font-size="13px" width="64px" fill="#323232" font-weight="400" align="middle" anchor="middle" family="微软雅黑" size="13px" weight="400" font-style="" opacity="1" y="32.05" transform="rotate(0)"><tspan id="SvgjsTspan1898" dy="16" x="42"><tspan id="SvgjsTspan1899" style="text-decoration:;">transform</tspan></tspan></text></g></g><g id="SvgjsG1900"><path id="SvgjsPath1901" d="M933.3634367956424 313.99573863636374C 963.2492777383948 316.6104109187935 978.4775958528901 316.6104109187935 1008.3634367956424 313.99573863636374" stroke="#323232" stroke-width="2" fill="none" marker-end="url(#SvgjsMarker1902)"></path></g><g id="SvgjsG1904" transform="translate(1172.3634367956424,271.9957386363637)"><path id="SvgjsPath1905" d="M 0 42C 0 -14 84 -14 84 42C 84 98 0 98 0 42Z" stroke="rgba(50,50,50,1)" stroke-width="2" fill-opacity="1" fill="#ffffff"></path><g id="SvgjsG1906"><text id="SvgjsText1907" font-family="微软雅黑" text-anchor="middle" font-size="13px" width="64px" fill="#323232" font-weight="400" align="middle" anchor="middle" family="微软雅黑" size="13px" weight="400" font-style="" opacity="1" y="24.05" transform="rotate(0)"><tspan id="SvgjsTspan1908" dy="16" x="42"><tspan id="SvgjsTspan1909" style="text-decoration:;">modulePa</tspan></tspan><tspan id="SvgjsTspan1910" dy="16" x="42"><tspan id="SvgjsTspan1911" style="text-decoration:;">rsed</tspan></tspan></text></g></g><g id="SvgjsG1912"><path id="SvgjsPath1913" d="M1092.3634367956424 313.99573863636374C 1124.2416671345782 316.7847224042888 1140.4852064567067 316.7847224042888 1172.3634367956424 313.99573863636374" stroke="#323232" stroke-width="2" fill="none" marker-end="url(#SvgjsMarker1914)"></path></g><g id="SvgjsG1916"><path id="SvgjsPath1917" d="M1214.3634367956424 271.9957386363637C 1103.3634367956424 164.99573863636363 932.3634367956424 131.99573863636363 770.3634367956424 168.99573863636365" stroke="#323232" stroke-width="2" fill="none" marker-end="url(#SvgjsMarker1918)"></path></g><g id="SvgjsG1920"><path id="SvgjsPath1921" d="M1214.3634367956424 355.99573863636374C 1162.3634367956424 440.99573863636374 808.3634367956425 410.99573863636374 770.3634367956424 313.99573863636374" stroke="#323232" stroke-width="2" fill="none" marker-end="url(#SvgjsMarker1922)"></path></g><g id="SvgjsG1924" transform="translate(1344.3634367956424,271.9957386363637)"><path id="SvgjsPath1925" d="M 0 42C 0 -14 84 -14 84 42C 84 98 0 98 0 42Z" stroke="rgba(50,50,50,1)" stroke-width="2" fill-opacity="1" fill="#ffffff"></path><g id="SvgjsG1926"><text id="SvgjsText1927" font-family="微软雅黑" text-anchor="middle" font-size="13px" width="64px" fill="#323232" font-weight="400" align="middle" anchor="middle" family="微软雅黑" size="13px" weight="400" font-style="" opacity="1" y="32.05" transform="rotate(0)"><tspan id="SvgjsTspan1928" dy="16" x="42"><tspan id="SvgjsTspan1929" style="text-decoration:;">buildEnd</tspan></tspan></text></g></g><g id="SvgjsG1930"><path id="SvgjsPath1931" d="M1256.3634367956424 313.99573863636374C 1291.4294901684718 317.0636207810813 1309.297383422813 317.06362078108134 1344.3634367956424 313.99573863636374" stroke="#323232" stroke-width="2" fill="none" marker-end="url(#SvgjsMarker1932)"></path></g><g id="SvgjsG1934"><path id="SvgjsPath1935" d="M728.3634367956424 210.99573863636365C 730.4900369186853 235.30288926980225 730.4900369186853 247.6885880029251 728.3634367956424 271.9957386363637" stroke="#323232" stroke-width="2" fill="none" marker-end="url(#SvgjsMarker1936)"></path></g><g id="SvgjsG1938"><path id="SvgjsPath1939" d="M728.3634367956424 126.99573863636363C 833.3634367956424 24.99573863636364 1314.3634367956424 85.99573863636363 1386.3634367956424 271.9957386363637" stroke="#323232" stroke-width="2" fill="none" marker-end="url(#SvgjsMarker1940)"></path></g><g id="SvgjsG1942"><path id="SvgjsPath1943" d="M728.3634367956424 355.99573863636374C 809.3634367956425 488.99573863636374 1250.3634367956424 507.9957386363635 1386.3634367956424 355.99573863636374" stroke="#323232" stroke-width="2" fill="none" marker-end="url(#SvgjsMarker1944)"></path></g><g id="SvgjsG1946" transform="translate(358.20275428546006,837.1488486842109)"><path id="SvgjsPath1947" d="M 0 42C 0 -14 84 -14 84 42C 84 98 0 98 0 42Z" stroke="rgba(50,50,50,1)" stroke-width="2" fill-opacity="1" fill="#ffffff"></path><g id="SvgjsG1948"><text id="SvgjsText1949" font-family="微软雅黑" text-anchor="middle" font-size="13px" width="64px" fill="#323232" font-weight="400" align="middle" anchor="middle" family="微软雅黑" size="13px" weight="400" font-style="" opacity="1" y="24.05" transform="rotate(0)"><tspan id="SvgjsTspan1950" dy="16" x="42"><tspan id="SvgjsTspan1951" style="text-decoration:;">outputOp</tspan></tspan><tspan id="SvgjsTspan1952" dy="16" x="42"><tspan id="SvgjsTspan1953" style="text-decoration:;">tions</tspan></tspan></text></g></g><g id="SvgjsG1954" transform="translate(526.2027542854601,837.1488486842109)"><path id="SvgjsPath1955" d="M 0 42C 0 -14 84 -14 84 42C 84 98 0 98 0 42Z" stroke="rgba(50,50,50,1)" stroke-width="2" fill-opacity="1" fill="#ffffff"></path><g id="SvgjsG1956"><text id="SvgjsText1957" font-family="微软雅黑" text-anchor="middle" font-size="13px" width="64px" fill="#323232" font-weight="400" align="middle" anchor="middle" family="微软雅黑" size="13px" weight="400" font-style="" opacity="1" y="24.05" transform="rotate(0)"><tspan id="SvgjsTspan1958" dy="16" x="42"><tspan id="SvgjsTspan1959" style="text-decoration:;">renderSta</tspan></tspan><tspan id="SvgjsTspan1960" dy="16" x="42"><tspan id="SvgjsTspan1961" style="text-decoration:;">rt</tspan></tspan></text></g></g><g id="SvgjsG1962" transform="translate(685.2027542854598,663.1488486842109)"><path id="SvgjsPath1963" d="M 0 42C 0 -14 84 -14 84 42C 84 98 0 98 0 42Z" stroke="rgba(50,50,50,1)" stroke-width="2" fill-opacity="1" fill="#ffffff"></path><g id="SvgjsG1964"><text id="SvgjsText1965" font-family="微软雅黑" text-anchor="middle" font-size="13px" width="64px" fill="#323232" font-weight="400" align="middle" anchor="middle" family="微软雅黑" size="13px" weight="400" font-style="" opacity="1" y="32.05" transform="rotate(0)"><tspan id="SvgjsTspan1966" dy="16" x="42"><tspan id="SvgjsTspan1967" style="text-decoration:;">banner</tspan></tspan></text></g></g><g id="SvgjsG1968" transform="translate(685.2027542854598,782.1488486842109)"><path id="SvgjsPath1969" d="M 0 42C 0 -14 84 -14 84 42C 84 98 0 98 0 42Z" stroke="rgba(50,50,50,1)" stroke-width="2" fill-opacity="1" fill="#ffffff"></path><g id="SvgjsG1970"><text id="SvgjsText1971" font-family="微软雅黑" text-anchor="middle" font-size="13px" width="64px" fill="#323232" font-weight="400" align="middle" anchor="middle" family="微软雅黑" size="13px" weight="400" font-style="" opacity="1" y="32.05" transform="rotate(0)"><tspan id="SvgjsTspan1972" dy="16" x="42"><tspan id="SvgjsTspan1973" style="text-decoration:;">footer</tspan></tspan></text></g></g><g id="SvgjsG1974" transform="translate(685.2027542854598,900.1488486842109)"><path id="SvgjsPath1975" d="M 0 42C 0 -14 84 -14 84 42C 84 98 0 98 0 42Z" stroke="rgba(50,50,50,1)" stroke-width="2" fill-opacity="1" fill="#ffffff"></path><g id="SvgjsG1976"><text id="SvgjsText1977" font-family="微软雅黑" text-anchor="middle" font-size="13px" width="64px" fill="#323232" font-weight="400" align="middle" anchor="middle" family="微软雅黑" size="13px" weight="400" font-style="" opacity="1" y="32.05" transform="rotate(0)"><tspan id="SvgjsTspan1978" dy="16" x="42"><tspan id="SvgjsTspan1979" style="text-decoration:;">intro</tspan></tspan></text></g></g><g id="SvgjsG1980" transform="translate(685.2027542854598,1016.1488486842088)"><path id="SvgjsPath1981" d="M 0 42C 0 -14 84 -14 84 42C 84 98 0 98 0 42Z" stroke="rgba(50,50,50,1)" stroke-width="2" fill-opacity="1" fill="#ffffff"></path><g id="SvgjsG1982"><text id="SvgjsText1983" font-family="微软雅黑" text-anchor="middle" font-size="13px" width="64px" fill="#323232" font-weight="400" align="middle" anchor="middle" family="微软雅黑" size="13px" weight="400" font-style="" opacity="1" y="32.05" transform="rotate(0)"><tspan id="SvgjsTspan1984" dy="16" x="42"><tspan id="SvgjsTspan1985" style="text-decoration:;">outro</tspan></tspan></text></g></g><g id="SvgjsG1986" transform="translate(848.2027542854604,837.1488486842109)"><path id="SvgjsPath1987" d="M 0 42C 0 -14 84 -14 84 42C 84 98 0 98 0 42Z" stroke="rgba(50,50,50,1)" stroke-width="2" fill-opacity="1" fill="#ffffff"></path><g id="SvgjsG1988"><text id="SvgjsText1989" font-family="微软雅黑" text-anchor="middle" font-size="13px" width="64px" fill="#323232" font-weight="400" align="middle" anchor="middle" family="微软雅黑" size="13px" weight="400" font-style="" opacity="1" y="16.05" transform="rotate(0)"><tspan id="SvgjsTspan1990" dy="16" x="42"><tspan id="SvgjsTspan1991" style="text-decoration:;">renderDy</tspan></tspan><tspan id="SvgjsTspan1992" dy="16" x="42"><tspan id="SvgjsTspan1993" style="text-decoration:;">namicImp</tspan></tspan><tspan id="SvgjsTspan1994" dy="16" x="42"><tspan id="SvgjsTspan1995" style="text-decoration:;">ort</tspan></tspan></text></g></g><g id="SvgjsG1996" transform="translate(1007.2027542854604,837.1488486842109)"><path id="SvgjsPath1997" d="M 0 42C 0 -14 84 -14 84 42C 84 98 0 98 0 42Z" stroke="rgba(50,50,50,1)" stroke-width="2" fill-opacity="1" fill="#ffffff"></path><g id="SvgjsG1998"><text id="SvgjsText1999" font-family="微软雅黑" text-anchor="middle" font-size="13px" width="64px" fill="#323232" font-weight="400" align="middle" anchor="middle" family="微软雅黑" size="13px" weight="400" font-style="" opacity="1" y="16.05" transform="rotate(0)"><tspan id="SvgjsTspan2000" dy="16" x="42"><tspan id="SvgjsTspan2001" style="text-decoration:;">augment</tspan></tspan><tspan id="SvgjsTspan2002" dy="16" x="42"><tspan id="SvgjsTspan2003" style="text-decoration:;">ChunkHas</tspan></tspan><tspan id="SvgjsTspan2004" dy="16" x="42"><tspan id="SvgjsTspan2005" style="text-decoration:;">h</tspan></tspan></text></g></g><g id="SvgjsG2006" transform="translate(1171.2027542854603,773.1488486842109)"><path id="SvgjsPath2007" d="M 0 42C 0 -14 84 -14 84 42C 84 98 0 98 0 42Z" stroke="rgba(50,50,50,1)" stroke-width="2" fill-opacity="1" fill="#ffffff"></path><g id="SvgjsG2008"><text id="SvgjsText2009" font-family="微软雅黑" text-anchor="middle" font-size="13px" width="64px" fill="#323232" font-weight="400" align="middle" anchor="middle" family="微软雅黑" size="13px" weight="400" font-style="" opacity="1" y="24.05" transform="rotate(0)"><tspan id="SvgjsTspan2010" dy="16" x="42"><tspan id="SvgjsTspan2011" style="text-decoration:;">resolveFil</tspan></tspan><tspan id="SvgjsTspan2012" dy="16" x="42"><tspan id="SvgjsTspan2013" style="text-decoration:;">eUrl</tspan></tspan></text></g></g><g id="SvgjsG2014" transform="translate(1171.2027542854603,907.14884868421)"><path id="SvgjsPath2015" d="M 0 42C 0 -14 84 -14 84 42C 84 98 0 98 0 42Z" stroke="rgba(50,50,50,1)" stroke-width="2" fill-opacity="1" fill="#ffffff"></path><g id="SvgjsG2016"><text id="SvgjsText2017" font-family="微软雅黑" text-anchor="middle" font-size="13px" width="64px" fill="#323232" font-weight="400" align="middle" anchor="middle" family="微软雅黑" size="13px" weight="400" font-style="" opacity="1" y="24.05" transform="rotate(0)"><tspan id="SvgjsTspan2018" dy="16" x="42"><tspan id="SvgjsTspan2019" style="text-decoration:;">resolveIm</tspan></tspan><tspan id="SvgjsTspan2020" dy="16" x="42"><tspan id="SvgjsTspan2021" style="text-decoration:;">portMeta</tspan></tspan></text></g></g><g id="SvgjsG2022" transform="translate(1343.2027542854594,837.1488486842109)"><path id="SvgjsPath2023" d="M 0 42C 0 -14 84 -14 84 42C 84 98 0 98 0 42Z" stroke="rgba(50,50,50,1)" stroke-width="2" fill-opacity="1" fill="#ffffff"></path><g id="SvgjsG2024"><text id="SvgjsText2025" font-family="微软雅黑" text-anchor="middle" font-size="13px" width="64px" fill="#323232" font-weight="400" align="middle" anchor="middle" family="微软雅黑" size="13px" weight="400" font-style="" opacity="1" y="24.05" transform="rotate(0)"><tspan id="SvgjsTspan2026" dy="16" x="42"><tspan id="SvgjsTspan2027" style="text-decoration:;">renderCh</tspan></tspan><tspan id="SvgjsTspan2028" dy="16" x="42"><tspan id="SvgjsTspan2029" style="text-decoration:;">unk</tspan></tspan></text></g></g><g id="SvgjsG2030" transform="translate(1516.2027542854594,837.1488486842109)"><path id="SvgjsPath2031" d="M 0 42C 0 -14 84 -14 84 42C 84 98 0 98 0 42Z" stroke="rgba(50,50,50,1)" stroke-width="2" fill-opacity="1" fill="#ffffff"></path><g id="SvgjsG2032"><text id="SvgjsText2033" font-family="微软雅黑" text-anchor="middle" font-size="13px" width="64px" fill="#323232" font-weight="400" align="middle" anchor="middle" family="微软雅黑" size="13px" weight="400" font-style="" opacity="1" y="24.05" transform="rotate(0)"><tspan id="SvgjsTspan2034" dy="16" x="42"><tspan id="SvgjsTspan2035" style="text-decoration:;">generateB</tspan></tspan><tspan id="SvgjsTspan2036" dy="16" x="42"><tspan id="SvgjsTspan2037" style="text-decoration:;">undle</tspan></tspan></text></g></g><g id="SvgjsG2038" transform="translate(1687.2027542854594,837.1488486842109)"><path id="SvgjsPath2039" d="M 0 42C 0 -14 84 -14 84 42C 84 98 0 98 0 42Z" stroke="rgba(50,50,50,1)" stroke-width="2" fill-opacity="1" fill="#ffffff"></path><g id="SvgjsG2040"><text id="SvgjsText2041" font-family="微软雅黑" text-anchor="middle" font-size="13px" width="64px" fill="#323232" font-weight="400" align="middle" anchor="middle" family="微软雅黑" size="13px" weight="400" font-style="" opacity="1" y="24.05" transform="rotate(0)"><tspan id="SvgjsTspan2042" dy="16" x="42"><tspan id="SvgjsTspan2043" style="text-decoration:;">writeBund</tspan></tspan><tspan id="SvgjsTspan2044" dy="16" x="42"><tspan id="SvgjsTspan2045" style="text-decoration:;">le</tspan></tspan></text></g></g><g id="SvgjsG2046"><path id="SvgjsPath2047" d="M442.20275428546006 879.1488486842109C 475.67489614134274 882.0772816405322 492.73061242957743 882.0772816405322 526.2027542854601 879.1488486842109" stroke="#323232" stroke-width="2" fill="none" marker-end="url(#SvgjsMarker2048)"></path></g><g id="SvgjsG2050"><path id="SvgjsPath2051" d="M610.2027542854598 879.1488486842109C 685.7045863908552 885.7544030688706 609.7009221800646 711.7544030688706 685.2027542854598 705.1488486842109" stroke="#323232" stroke-width="2" fill="none" marker-end="url(#SvgjsMarker2052)"></path></g><g id="SvgjsG2054"><path id="SvgjsPath2055" d="M610.2027542854598 879.1488486842109C 647.263339346741 882.3912297407112 648.1421692241788 827.3912297407112 685.2027542854598 824.1488486842109" stroke="#323232" stroke-width="2" fill="none" marker-end="url(#SvgjsMarker2056)"></path></g><g id="SvgjsG2058"><path id="SvgjsPath2059" d="M610.2027542854598 879.1488486842109C 649.2332506516595 882.5635746480431 646.1722579192601 945.5635746480414 685.2027542854598 942.148848684209" stroke="#323232" stroke-width="2" fill="none" marker-end="url(#SvgjsMarker2060)"></path></g><g id="SvgjsG2062"><path id="SvgjsPath2063" d="M610.2027542854598 879.1488486842109C 687.5382668653648 885.914829322919 607.867241705555 1064.9148293229173 685.2027542854598 1058.148848684209" stroke="#323232" stroke-width="2" fill="none" marker-end="url(#SvgjsMarker2064)"></path></g><g id="SvgjsG2066"><path id="SvgjsPath2067" d="M769.2027542854598 705.1488486842109C 845.3495728489418 711.8108320720809 772.0559357219786 885.8108320720809 848.2027542854604 879.1488486842109" stroke="#323232" stroke-width="2" fill="none" marker-end="url(#SvgjsMarker2068)"></path></g><g id="SvgjsG2070"><path id="SvgjsPath2071" d="M769.2027542854598 824.1488486842109C 807.5602606062953 827.5046956484078 809.8452479646255 882.5046956484078 848.2027542854604 879.1488486842109" stroke="#323232" stroke-width="2" fill="none" marker-end="url(#SvgjsMarker2072)"></path></g><g id="SvgjsG2074"><path id="SvgjsPath2075" d="M769.2027542854598 942.148848684209C 809.466770139078 945.6714936194287 807.9387384318428 882.6714936194305 848.2027542854604 879.1488486842109" stroke="#323232" stroke-width="2" fill="none" marker-end="url(#SvgjsMarker2076)"></path></g><g id="SvgjsG2078"><path id="SvgjsPath2079" d="M769.2027542854598 1058.148848684209C 847.1680852477866 1064.9699312914595 770.2374233231337 885.9699312914612 848.2027542854604 879.1488486842109" stroke="#323232" stroke-width="2" fill="none" marker-end="url(#SvgjsMarker2080)"></path></g><g id="SvgjsG2082"><path id="SvgjsPath2083" d="M932.2027542854604 879.1488486842109C 962.0885952282127 881.7635209666406 977.3169133427081 881.7635209666406 1007.2027542854604 879.1488486842109" stroke="#323232" stroke-width="2" fill="none" marker-end="url(#SvgjsMarker2084)"></path></g><g id="SvgjsG2086"><path id="SvgjsPath2087" d="M1091.2027542854603 879.1488486842109C 1132.0268081514018 882.7204905966524 1130.378700419519 818.7204905966524 1171.2027542854603 815.1488486842109" stroke="#323232" stroke-width="2" fill="none" marker-end="url(#SvgjsMarker2088)"></path></g><g id="SvgjsG2090"><path id="SvgjsPath2091" d="M1091.2027542854603 879.1488486842109C 1133.561533879814 882.85476169951 1128.8439746911067 952.8547616995081 1171.2027542854603 949.148848684209" stroke="#323232" stroke-width="2" fill="none" marker-end="url(#SvgjsMarker2092)"></path></g><g id="SvgjsG2094"><path id="SvgjsPath2095" d="M1255.2027542854603 815.1488486842109C 1298.5618352680317 818.9422767310883 1299.8436733028893 882.9422767310883 1343.2027542854594 879.1488486842109" stroke="#323232" stroke-width="2" fill="none" marker-end="url(#SvgjsMarker2096)"></path></g><g id="SvgjsG2098"><path id="SvgjsPath2099" d="M1255.2027542854603 949.148848684209C 1300.0098155406567 953.0689585899504 1298.3956930302643 883.0689585899522 1343.2027542854594 879.1488486842109" stroke="#323232" stroke-width="2" fill="none" marker-end="url(#SvgjsMarker2100)"></path></g><g id="SvgjsG2102"><path id="SvgjsPath2103" d="M1427.2027542854594 879.1488486842109C 1462.6672855375255 882.2515931260275 1480.7382230333933 882.2515931260275 1516.2027542854594 879.1488486842109" stroke="#323232" stroke-width="2" fill="none" marker-end="url(#SvgjsMarker2104)"></path></g><g id="SvgjsG2106"><path id="SvgjsPath2107" d="M1600.2027542854594 879.1488486842109C 1634.870329779052 882.1818685318293 1652.5351787918667 882.1818685318294 1687.2027542854594 879.1488486842109" stroke="#323232" stroke-width="2" fill="none" marker-end="url(#SvgjsMarker2108)"></path></g><g id="SvgjsG2110"><path id="SvgjsPath2111" d="M1558.2027542854594 921.1488486842097C 1494.3845724672776 1154.7852123205726 608.9300270127326 1256.6033941387543 400.20275428546006 921.1488486842097" stroke="#323232" stroke-width="2" fill="none" marker-end="url(#SvgjsMarker2112)"></path></g><g id="SvgjsG2114"><path id="SvgjsPath2115" d="M1729.2027542854594 921.1488486842097C 1621.657299740005 1174.7852123205726 554.3845724672781 1325.6943032296635 400.20275428546006 921.1488486842097" stroke="#323232" stroke-width="2" fill="none" marker-end="url(#SvgjsMarker2116)"></path></g><g id="SvgjsG2118"><path id="SvgjsPath2119" d="M1428.3634367956424 313.9957386363637C 1866.3281250000002 494.02604166666674 24.99479166666663 638.0260416666667 358.20275428546006 879.1488486842109" stroke="#323232" stroke-width="2" fill="none" marker-end="url(#SvgjsMarker2120)"></path></g></svg>