<svg id="SvgjsSvg1034" width="659" height="104" xmlns="http://www.w3.org/2000/svg" version="1.1" xmlns:xlink="http://www.w3.org/1999/xlink" xmlns:svgjs="http://svgjs.com/svgjs"><defs id="SvgjsDefs1035"><marker id="SvgjsMarker1050" markerWidth="14" markerHeight="10" refX="10" refY="5" viewBox="0 0 14 10" orient="auto" markerUnits="userSpaceOnUse" stroke-dasharray="0,0"><path id="SvgjsPath1051" d="M0,0 L14,5 L0,10 L0,0" fill="#323232" stroke="#323232" stroke-width="1"></path></marker><marker id="SvgjsMarker1060" markerWidth="14" markerHeight="10" refX="10" refY="5" viewBox="0 0 14 10" orient="auto" markerUnits="userSpaceOnUse" stroke-dasharray="0,0"><path id="SvgjsPath1061" d="M0,0 L14,5 L0,10 L0,0" fill="#323232" stroke="#323232" stroke-width="1"></path></marker></defs><g id="SvgjsG1036" transform="translate(25,25)"><path id="SvgjsPath1037" d="M 0 4Q 0 0 4 0L 139 0Q 143 0 143 4L 143 50Q 143 54 139 54L 4 54Q 0 54 0 50Z" stroke="rgba(33,41,48,1)" stroke-width="2" fill-opacity="1" fill="#ffffff"></path><g id="SvgjsG1038"><text id="SvgjsText1039" font-family="微软雅黑" text-anchor="middle" font-size="13px" width="123px" fill="#323232" font-weight="400" align="middle" lineHeight="125%" anchor="middle" family="微软雅黑" size="13px" weight="400" font-style="" opacity="1" y="16.375" transform="rotate(0)"><tspan id="SvgjsTspan1040" dy="16" x="71.5"><tspan id="SvgjsTspan1041" style="text-decoration:;">开通基础彩铃功能</tspan></tspan></text></g></g><g id="SvgjsG1042" transform="translate(258,25)"><path id="SvgjsPath1043" d="M 0 4Q 0 0 4 0L 139 0Q 143 0 143 4L 143 50Q 143 54 139 54L 4 54Q 0 54 0 50Z" stroke="rgba(33,41,48,1)" stroke-width="2" fill-opacity="1" fill="#ffffff"></path><g id="SvgjsG1044"><text id="SvgjsText1045" font-family="微软雅黑" text-anchor="middle" font-size="13px" width="123px" fill="#323232" font-weight="400" align="middle" lineHeight="125%" anchor="middle" family="微软雅黑" size="13px" weight="400" font-style="" opacity="1" y="16.375" transform="rotate(0)"><tspan id="SvgjsTspan1046" dy="16" x="71.5"><tspan id="SvgjsTspan1047" style="text-decoration:;">订购VIP业务</tspan></tspan></text></g></g><g id="SvgjsG1048"><path id="SvgjsPath1049" d="M169 52L213 52L213 52L254.39999999999998 52" stroke="#323232" stroke-width="2" fill="none" marker-end="url(#SvgjsMarker1050)"></path></g><g id="SvgjsG1052" transform="translate(491,25)"><path id="SvgjsPath1053" d="M 0 4Q 0 0 4 0L 139 0Q 143 0 143 4L 143 50Q 143 54 139 54L 4 54Q 0 54 0 50Z" stroke="rgba(33,41,48,1)" stroke-width="2" fill-opacity="1" fill="#ffffff"></path><g id="SvgjsG1054"><text id="SvgjsText1055" font-family="微软雅黑" text-anchor="middle" font-size="13px" width="123px" fill="#323232" font-weight="400" align="middle" lineHeight="125%" anchor="middle" family="微软雅黑" size="13px" weight="400" font-style="" opacity="1" y="16.375" transform="rotate(0)"><tspan id="SvgjsTspan1056" dy="16" x="71.5"><tspan id="SvgjsTspan1057" style="text-decoration:;">提交彩铃设置任务</tspan></tspan></text></g></g><g id="SvgjsG1058"><path id="SvgjsPath1059" d="M402 52L446 52L446 52L487.4 52" stroke="#323232" stroke-width="2" fill="none" marker-end="url(#SvgjsMarker1060)"></path></g></svg>