<svg id="SvgjsSvg1001" width="651" height="193" xmlns="http://www.w3.org/2000/svg" version="1.1" xmlns:xlink="http://www.w3.org/1999/xlink" xmlns:svgjs="http://svgjs.com/svgjs"><defs id="SvgjsDefs1002"><marker id="SvgjsMarker1034" markerWidth="14" markerHeight="10" refX="10" refY="5" viewBox="0 0 14 10" orient="auto" markerUnits="userSpaceOnUse" stroke-dasharray="0,0"><path id="SvgjsPath1035" d="M0,0 L14,5 L0,10 L0,0" fill="#323232" stroke="#323232" stroke-width="1"></path></marker><marker id="SvgjsMarker1048" markerWidth="14" markerHeight="10" refX="10" refY="5" viewBox="0 0 14 10" orient="auto" markerUnits="userSpaceOnUse" stroke-dasharray="0,0"><path id="SvgjsPath1049" d="M0,0 L14,5 L0,10 L0,0" fill="#323232" stroke="#323232" stroke-width="1"></path></marker></defs><g id="SvgjsG1008" transform="translate(149,98)"><path id="SvgjsPath1009" d="M 0 35C 0 -11.666666666666666 70 -11.666666666666666 70 35C 70 81.66666666666667 0 81.66666666666667 0 35Z" stroke="rgba(33,41,48,1)" stroke-width="2" fill-opacity="1" fill="#ffffff"></path><g id="SvgjsG1010"><text id="SvgjsText1011" font-family="微软雅黑" text-anchor="middle" font-size="13px" width="50px" fill="#323232" font-weight="400" align="middle" lineHeight="125%" anchor="middle" family="微软雅黑" size="13px" weight="400" font-style="" opacity="1" y="24.375" transform="rotate(0)"><tspan id="SvgjsTspan1012" dy="16" x="35"><tspan id="SvgjsTspan1013" style="text-decoration:;">浏览器</tspan></tspan></text></g></g><g id="SvgjsG1014" transform="translate(25,25)"><path id="SvgjsPath1015" d="M 0 0L 271 0L 287 16L 287 60L 0 60L 0 0Z" stroke="none" fill-opacity="1" fill="#fff7bc"></path><path id="SvgjsPath1016" d="M 271 0L 271 16L 287 16Z" stroke="none" fill-opacity="1" fill="#e4d089"></path><path id="SvgjsPath1017" d="M 0 0L 271 0L 287 16L 287 60L 0 60L 0 0Z" stroke="none" fill="none"></path><g id="SvgjsG1018"><text id="SvgjsText1019" font-family="微软雅黑" text-anchor="start" font-size="13px" width="267px" fill="#323232" font-weight="400" align="middle" lineHeight="125%" anchor="start" family="微软雅黑" size="13px" weight="400" font-style="" opacity="1" y="10.875" transform="rotate(0)"><tspan id="SvgjsTspan1020" dy="16" x="10"><tspan id="SvgjsTspan1021" style="text-decoration:;">本地访问：</tspan></tspan><tspan id="SvgjsTspan1022" dy="16" x="10"><tspan id="SvgjsTspan1023" style="text-decoration:;">https://migu.diyring.cc/union/page/miguv2</tspan></tspan></text></g></g><g id="SvgjsG1024" transform="translate(354,106)"><path id="SvgjsPath1025" d="M 0 0L 96 0L 96 54L 0 54Z" stroke="rgba(33,41,48,1)" stroke-width="2" fill-opacity="1" fill="#ffffff"></path><g id="SvgjsG1026"><text id="SvgjsText1027" font-family="微软雅黑" text-anchor="middle" font-size="13px" width="76px" fill="#323232" font-weight="400" align="middle" lineHeight="125%" anchor="middle" family="微软雅黑" size="13px" weight="400" font-style="" opacity="1" y="7.875" transform="rotate(0)"><tspan id="SvgjsTspan1028" dy="16" x="48"><tspan id="SvgjsTspan1029" style="text-decoration:;">本地</tspan></tspan><tspan id="SvgjsTspan1030" dy="16" x="48"><tspan id="SvgjsTspan1031" style="text-decoration:;">nginx</tspan></tspan></text></g></g><g id="SvgjsG1032"><path id="SvgjsPath1033" d="M219.9971427480906 133.07554031989824C 272.79451369695425 137.70641010837352 300 133 350.4000976118504 133.02651029601356" stroke="#323232" stroke-width="2" fill="none" marker-end="url(#SvgjsMarker1034)"></path><rect id="SvgjsRect1036" width="52" height="16" x="257.73164240787855" y="126.846116542315" fill="#ffffff"></rect><text id="SvgjsText1037" font-family="微软雅黑" text-anchor="middle" font-size="13px" width="52px" fill="#323232" font-weight="400" align="top" lineHeight="16px" anchor="middle" family="微软雅黑" size="13px" weight="400" font-style="" opacity="1" y="124.221116542315" transform="rotate(0)"><tspan id="SvgjsTspan1038" dy="16" x="283.73164240787855"><tspan id="SvgjsTspan1039" style="text-decoration:;">host映射</tspan></tspan></text></g><g id="SvgjsG1040" transform="translate(556,98)"><path id="SvgjsPath1041" d="M 0 35C 0 -11.666666666666666 70 -11.666666666666666 70 35C 70 81.66666666666667 0 81.66666666666667 0 35Z" stroke="rgba(33,41,48,1)" stroke-width="2" fill-opacity="1" fill="#ffffff"></path><g id="SvgjsG1042"><text id="SvgjsText1043" font-family="微软雅黑" text-anchor="middle" font-size="13px" width="50px" fill="#323232" font-weight="400" align="middle" lineHeight="125%" anchor="middle" family="微软雅黑" size="13px" weight="400" font-style="" opacity="1" y="24.375" transform="rotate(0)"><tspan id="SvgjsTspan1044" dy="16" x="35"><tspan id="SvgjsTspan1045" style="text-decoration:;">vscode</tspan></tspan></text></g></g><g id="SvgjsG1046"><path id="SvgjsPath1047" d="M450.9999574140519 133.00922876387648C 492.4 133 513.76134480091 136.6954034925007 552.4094379246447 133.26050716500885" stroke="#323232" stroke-width="2" fill="none" marker-end="url(#SvgjsMarker1048)"></path><rect id="SvgjsRect1050" width="26" height="32" x="487.8931665647595" y="118.35832435131238" fill="#ffffff"></rect><text id="SvgjsText1051" font-family="微软雅黑" text-anchor="middle" font-size="13px" width="26px" fill="#323232" font-weight="400" align="top" lineHeight="16px" anchor="middle" family="微软雅黑" size="13px" weight="400" font-style="" opacity="1" y="115.73332435131238" transform="rotate(0)"><tspan id="SvgjsTspan1052" dy="16" x="500.8931665647595"><tspan id="SvgjsTspan1053" style="text-decoration:;">转发</tspan></tspan><tspan id="SvgjsTspan1054" dy="16" x="500.8931665647595"><tspan id="SvgjsTspan1055" style="text-decoration:;">请求</tspan></tspan></text></g></svg>