<svg id="SvgjsSvg1108" width="490" height="240" xmlns="http://www.w3.org/2000/svg" version="1.1" xmlns:xlink="http://www.w3.org/1999/xlink" xmlns:svgjs="http://svgjs.com/svgjs"><defs id="SvgjsDefs1109"><marker id="SvgjsMarker1124" markerWidth="14" markerHeight="10" refX="10" refY="5" viewBox="0 0 14 10" orient="auto" markerUnits="userSpaceOnUse" stroke-dasharray="0,0"><path id="SvgjsPath1125" d="M0,0 L14,5 L0,10 L0,0" fill="#323232" stroke="#323232" stroke-width="1"></path></marker><marker id="SvgjsMarker1134" markerWidth="14" markerHeight="10" refX="10" refY="5" viewBox="0 0 14 10" orient="auto" markerUnits="userSpaceOnUse" stroke-dasharray="0,0"><path id="SvgjsPath1135" d="M0,0 L14,5 L0,10 L0,0" fill="#323232" stroke="#323232" stroke-width="1"></path></marker><marker id="SvgjsMarker1152" markerWidth="14" markerHeight="10" refX="10" refY="5" viewBox="0 0 14 10" orient="auto" markerUnits="userSpaceOnUse" stroke-dasharray="0,0"><path id="SvgjsPath1153" d="M0,0 L14,5 L0,10 L0,0" fill="#323232" stroke="#323232" stroke-width="1"></path></marker><marker id="SvgjsMarker1162" markerWidth="14" markerHeight="10" refX="10" refY="5" viewBox="0 0 14 10" orient="auto" markerUnits="userSpaceOnUse" stroke-dasharray="0,0"><path id="SvgjsPath1163" d="M0,0 L14,5 L0,10 L0,0" fill="#323232" stroke="#323232" stroke-width="1"></path></marker></defs><g id="SvgjsG1110" transform="translate(31,25)"><path id="SvgjsPath1111" d="M 0 4Q 0 0 4 0L 92 0Q 96 0 96 4L 96 50Q 96 54 92 54L 4 54Q 0 54 0 50Z" stroke="rgba(33,41,48,1)" stroke-width="2" fill-opacity="1" fill="#ffffff"></path><g id="SvgjsG1112"><text id="SvgjsText1113" font-family="微软雅黑" text-anchor="middle" font-size="13px" width="76px" fill="#323232" font-weight="400" align="middle" lineHeight="125%" anchor="middle" family="微软雅黑" size="13px" weight="400" font-style="" opacity="1" y="16.375" transform="rotate(0)"><tspan id="SvgjsTspan1114" dy="16" x="48"><tspan id="SvgjsTspan1115" style="text-decoration:;">获取验证码</tspan></tspan></text></g></g><g id="SvgjsG1116" transform="translate(182,25)"><path id="SvgjsPath1117" d="M 0 4Q 0 0 4 0L 92 0Q 96 0 96 4L 96 50Q 96 54 92 54L 4 54Q 0 54 0 50Z" stroke="rgba(33,41,48,1)" stroke-width="2" fill-opacity="1" fill="#ffffff"></path><g id="SvgjsG1118"><text id="SvgjsText1119" font-family="微软雅黑" text-anchor="middle" font-size="13px" width="76px" fill="#323232" font-weight="400" align="middle" lineHeight="125%" anchor="middle" family="微软雅黑" size="13px" weight="400" font-style="" opacity="1" y="16.375" transform="rotate(0)"><tspan id="SvgjsTspan1120" dy="16" x="48"><tspan id="SvgjsTspan1121" style="text-decoration:;">登录</tspan></tspan></text></g></g><g id="SvgjsG1122"><path id="SvgjsPath1123" d="M128 52C 149 52 160 52 178.39999999999998 52" stroke="#323232" stroke-width="2" fill="none" marker-end="url(#SvgjsMarker1124)"></path></g><g id="SvgjsG1126" transform="translate(333,25)"><path id="SvgjsPath1127" d="M 0 4Q 0 0 4 0L 116 0Q 120 0 120 4L 120 50Q 120 54 116 54L 4 54Q 0 54 0 50Z" stroke="rgba(33,41,48,1)" stroke-width="2" fill-opacity="1" fill="#ffffff"></path><g id="SvgjsG1128"><text id="SvgjsText1129" font-family="微软雅黑" text-anchor="middle" font-size="13px" width="100px" fill="#323232" font-weight="400" align="middle" lineHeight="125%" anchor="middle" family="微软雅黑" size="13px" weight="400" font-style="" opacity="1" y="16.375" transform="rotate(0)"><tspan id="SvgjsTspan1130" dy="16" x="60"><tspan id="SvgjsTspan1131" style="text-decoration:;">webjs方式开VIP</tspan></tspan></text></g></g><g id="SvgjsG1132"><path id="SvgjsPath1133" d="M279 52C 300 52 311 52 329.4 52" stroke="#323232" stroke-width="2" fill="none" marker-end="url(#SvgjsMarker1134)"></path></g><g id="SvgjsG1136" transform="translate(25,161)"><path id="SvgjsPath1137" d="M 0 4Q 0 0 4 0L 110 0Q 114 0 114 4L 114 50Q 114 54 110 54L 4 54Q 0 54 0 50Z" stroke="rgba(33,41,48,1)" stroke-width="2" fill-opacity="1" fill="#ffffff"></path><g id="SvgjsG1138"><text id="SvgjsText1139" font-family="微软雅黑" text-anchor="middle" font-size="13px" width="94px" fill="#323232" font-weight="400" align="middle" lineHeight="125%" anchor="middle" family="微软雅黑" size="13px" weight="400" font-style="" opacity="1" y="7.875" transform="rotate(0)"><tspan id="SvgjsTspan1140" dy="16" x="57"><tspan id="SvgjsTspan1141" style="text-decoration:;">获取验证码</tspan></tspan><tspan id="SvgjsTspan1142" dy="16" x="57"><tspan id="SvgjsTspan1143" style="text-decoration:;">（设置token）</tspan></tspan></text></g></g><g id="SvgjsG1144" transform="translate(194,161)"><path id="SvgjsPath1145" d="M 0 4Q 0 0 4 0L 116 0Q 120 0 120 4L 120 50Q 120 54 116 54L 4 54Q 0 54 0 50Z" stroke="rgba(33,41,48,1)" stroke-width="2" fill-opacity="1" fill="#ffffff"></path><g id="SvgjsG1146"><text id="SvgjsText1147" font-family="微软雅黑" text-anchor="middle" font-size="13px" width="100px" fill="#323232" font-weight="400" align="middle" lineHeight="125%" anchor="middle" family="微软雅黑" size="13px" weight="400" font-style="" opacity="1" y="16.375" transform="rotate(0)"><tspan id="SvgjsTspan1148" dy="16" x="60"><tspan id="SvgjsTspan1149" style="text-decoration:;">webjs方式开VIP</tspan></tspan></text></g></g><g id="SvgjsG1150"><path id="SvgjsPath1151" d="M140 188C 161 188 172 188 190.39999999999998 188" stroke="#323232" stroke-width="2" fill="none" marker-end="url(#SvgjsMarker1152)"></path></g><g id="SvgjsG1154" transform="translate(369,161)"><path id="SvgjsPath1155" d="M 0 4Q 0 0 4 0L 92 0Q 96 0 96 4L 96 50Q 96 54 92 54L 4 54Q 0 54 0 50Z" stroke="rgba(33,41,48,1)" stroke-width="2" fill-opacity="1" fill="#ffffff"></path><g id="SvgjsG1156"><text id="SvgjsText1157" font-family="微软雅黑" text-anchor="middle" font-size="13px" width="76px" fill="#323232" font-weight="400" align="middle" lineHeight="125%" anchor="middle" family="微软雅黑" size="13px" weight="400" font-style="" opacity="1" y="16.375" transform="rotate(0)"><tspan id="SvgjsTspan1158" dy="16" x="48"><tspan id="SvgjsTspan1159" style="text-decoration:;">token登录</tspan></tspan></text></g></g><g id="SvgjsG1160"><path id="SvgjsPath1161" d="M315 188C 336 188 347 188 365.4 188" stroke="#323232" stroke-width="2" fill="none" marker-end="url(#SvgjsMarker1162)"></path></g><g id="SvgjsG1164" transform="translate(218,101)"><path id="SvgjsPath1165" d="M 7.92 0L 16.080000000000002 0L 16.080000000000002 26L 24 26L 12 38L 0 26L 7.92 26L 7.92 0Z" stroke="rgba(33,41,48,1)" stroke-width="2" fill-opacity="1" fill="#ffffff"></path><g id="SvgjsG1166"><text id="SvgjsText1167" font-family="微软雅黑" text-anchor="middle" font-size="13px" width="34px" fill="#323232" font-weight="400" align="middle" lineHeight="125%" anchor="middle" family="微软雅黑" size="13px" weight="400" font-style="" opacity="1" y="6.475000000000001" transform="rotate(0)"></text></g></g></svg>