<svg version="1.1" xmlns="http://www.w3.org/2000/svg" viewBox="0 0 1257.263671875 428.10101561206784" width="2514.52734375" height="856.2020312241357">
  <!-- svg-source:excalidraw -->
  
  <defs>
    <style class="style-fonts">
      @font-face {
        font-family: "Virgil";
        src: url("https://excalidraw.com/Virgil.woff2");
      }
      @font-face {
        font-family: "Cascadia";
        src: url("https://excalidraw.com/Cascadia.woff2");
      }
      @font-face {
        font-family: "Assistant";
        src: url("https://excalidraw.com/Assistant-Regular.woff2");
      }
    </style>
    
  </defs>
  <rect x="0" y="0" width="1257.263671875" height="428.10101561206784" fill="#ffffff"></rect><g stroke-linecap="round" transform="translate(10 10.26953125) rotate(0 100.404296875 154.650390625)"><path d="M32 0 C71.56 2.05, 109.64 2.86, 168.81 0 M32 0 C78.17 -1.56, 125.69 -1.22, 168.81 0 M168.81 0 C191.46 1.62, 201 11.78, 200.81 32 M168.81 0 C190.58 -1.75, 198.63 11.64, 200.81 32 M200.81 32 C203.14 92.21, 202.12 153.76, 200.81 277.3 M200.81 32 C199.3 86.62, 199.77 142.2, 200.81 277.3 M200.81 277.3 C198.93 297.67, 190.83 310.97, 168.81 309.3 M200.81 277.3 C200.72 299.38, 191.39 311.47, 168.81 309.3 M168.81 309.3 C123.58 308.35, 77.62 306.75, 32 309.3 M168.81 309.3 C123.3 309.7, 78.56 310.47, 32 309.3 M32 309.3 C12.27 310.44, -1.59 299.4, 0 277.3 M32 309.3 C11.43 308.22, 0.72 300.68, 0 277.3 M0 277.3 C-0.08 182.15, -2.73 88.95, 0 32 M0 277.3 C0.65 198.55, 0.36 121.01, 0 32 M0 32 C-1.46 9.66, 11.18 0.18, 32 0 M0 32 C1.69 10.53, 11.36 -1.43, 32 0" stroke="#1e1e1e" stroke-width="2" fill="none"></path></g><g transform="translate(51.34765625 153.150390625) rotate(0 62.783203125 11.5)"><text x="0" y="18.400390625" font-family="Helvetica, Segoe UI Emoji" font-size="20px" fill="#1e1e1e" text-anchor="start" style="white-space: pre;" direction="ltr" dominant-baseline="alphabetic">业务端H5页面</text></g><g stroke-linecap="round" transform="translate(356.302734375 10) rotate(0 100.404296875 154.650390625)"><path d="M32 0 C79.65 0.09, 124.58 0.35, 168.81 0 M32 0 C73.18 0.54, 114.24 0.07, 168.81 0 M168.81 0 C189.76 -1.91, 200.87 9.13, 200.81 32 M168.81 0 C191.29 1.11, 201.67 10.9, 200.81 32 M200.81 32 C198.96 121.58, 200.86 210.38, 200.81 277.3 M200.81 32 C201.43 95.67, 201.81 160.85, 200.81 277.3 M200.81 277.3 C201.6 297.14, 190.97 310.72, 168.81 309.3 M200.81 277.3 C202.73 299.4, 189.12 307.71, 168.81 309.3 M168.81 309.3 C118.11 309.86, 64.55 307.7, 32 309.3 M168.81 309.3 C134.55 310.99, 100.88 310.46, 32 309.3 M32 309.3 C9.9 308.36, -1.73 299.55, 0 277.3 M32 309.3 C9.5 310.62, 0.39 297.72, 0 277.3 M0 277.3 C-0.62 190.43, -0.61 104.6, 0 32 M0 277.3 C1.54 224.97, 1.16 173.4, 0 32 M0 32 C-1.81 10.32, 11.38 1.22, 32 0 M0 32 C-1.22 10.08, 9.13 -1.99, 32 0" stroke="#1e1e1e" stroke-width="2" fill="none"></path></g><g transform="translate(369.9931640625 141.650390625) rotate(0 86.7138671875 23)"><text x="86.7138671875" y="18.400390625" font-family="Helvetica, Segoe UI Emoji" font-size="20px" fill="#1e1e1e" text-anchor="middle" style="white-space: pre;" direction="ltr" dominant-baseline="alphabetic">中间页</text><text x="86.7138671875" y="41.400390625" font-family="Helvetica, Segoe UI Emoji" font-size="20px" fill="#1e1e1e" text-anchor="middle" style="white-space: pre;" direction="ltr" dominant-baseline="alphabetic">pring.kuyin123.com</text></g><g stroke-linecap="round" transform="translate(697.904296875 10) rotate(0 100.404296875 154.650390625)"><path d="M32 0 C79.86 -1.95, 123.42 -2.41, 168.81 0 M32 0 C60.46 0.18, 89.12 -0.9, 168.81 0 M168.81 0 C190.84 0.97, 202.14 9.83, 200.81 32 M168.81 0 C189.85 1.88, 199.5 12.9, 200.81 32 M200.81 32 C197.66 104.34, 198.41 177.57, 200.81 277.3 M200.81 32 C199.98 105.49, 199.92 178.49, 200.81 277.3 M200.81 277.3 C198.89 297.42, 191.69 307.43, 168.81 309.3 M200.81 277.3 C200.93 297.55, 191.5 310.34, 168.81 309.3 M168.81 309.3 C136.73 309.88, 109.56 310.39, 32 309.3 M168.81 309.3 C123.98 307.65, 78.16 308.48, 32 309.3 M32 309.3 C11.84 310.34, -0.77 297.65, 0 277.3 M32 309.3 C12.73 311.48, -2.2 296.85, 0 277.3 M0 277.3 C2.28 185.89, 0.19 93.49, 0 32 M0 277.3 C-0.28 187.53, 0.8 97.31, 0 32 M0 32 C0.65 9.59, 10.87 -0.07, 32 0 M0 32 C-2.1 12.63, 11.74 0.24, 32 0" stroke="#1e1e1e" stroke-width="2" fill="none"></path></g><g transform="translate(748.30859375 153.150390625) rotate(0 50 11.5)"><text x="50" y="18.400390625" font-family="Helvetica, Segoe UI Emoji" font-size="20px" fill="#1e1e1e" text-anchor="middle" style="white-space: pre;" direction="ltr" dominant-baseline="alphabetic">微信中间页</text></g><g stroke-linecap="round" transform="translate(1046.455078125 10) rotate(0 100.404296875 154.650390625)"><path d="M32 0 C66.82 0.33, 101.09 0.15, 168.81 0 M32 0 C76.86 0.79, 123.59 1.34, 168.81 0 M168.81 0 C188.43 1.77, 200.42 9.25, 200.81 32 M168.81 0 C188.63 1.44, 199.61 9.91, 200.81 32 M200.81 32 C199.34 124.52, 200.3 217.76, 200.81 277.3 M200.81 32 C199.7 97.57, 199.56 163.25, 200.81 277.3 M200.81 277.3 C202.34 299.52, 191.17 310.03, 168.81 309.3 M200.81 277.3 C201.22 300.73, 189.3 310.1, 168.81 309.3 M168.81 309.3 C121.09 308.25, 71.68 308.86, 32 309.3 M168.81 309.3 C114.98 308.63, 60.33 309.43, 32 309.3 M32 309.3 C12.6 309.16, -0.61 297.13, 0 277.3 M32 309.3 C9.24 307.96, -0.66 296.41, 0 277.3 M0 277.3 C-2.91 200.59, -3.16 121.23, 0 32 M0 277.3 C-0.76 227.09, -0.48 175.49, 0 32 M0 32 C0.78 12.05, 11.05 1.16, 32 0 M0 32 C-1.78 11.52, 9.89 1.9, 32 0" stroke="#1e1e1e" stroke-width="2" fill="none"></path></g><g transform="translate(1126.859375 153.150390625) rotate(0 20 11.5)"><text x="20" y="18.400390625" font-family="Helvetica, Segoe UI Emoji" font-size="20px" fill="#1e1e1e" text-anchor="middle" style="white-space: pre;" direction="ltr" dominant-baseline="alphabetic">微信</text></g><g stroke-linecap="round"><g transform="translate(215.20703125 160.3642578125) rotate(0 68.396484375 0)"><path d="M0.97 -0.58 C23.41 -0.72, 113.11 -0.95, 135.64 -0.86 M0.02 1.74 C22.73 1.71, 115.24 0.31, 137.75 0.23" stroke="#1e1e1e" stroke-width="2" fill="none"></path></g><g transform="translate(215.20703125 160.3642578125) rotate(0 68.396484375 0)"><path d="M114.34 9.02 C122.33 3.55, 130.82 1.01, 137.75 0.23 M114.34 9.02 C121.49 5.92, 128.98 3.39, 137.75 0.23" stroke="#1e1e1e" stroke-width="2" fill="none"></path></g><g transform="translate(215.20703125 160.3642578125) rotate(0 68.396484375 0)"><path d="M114.17 -8.08 C122.23 -7.01, 130.79 -3.01, 137.75 0.23 M114.17 -8.08 C121.36 -6.1, 128.89 -3.54, 137.75 0.23" stroke="#1e1e1e" stroke-width="2" fill="none"></path></g></g><mask></mask><g stroke-linecap="round"><g transform="translate(564.80859375 160.8759765625) rotate(0 62.953125 0)"><path d="M1.13 0.53 C22.22 0.41, 106.07 -0.75, 126.9 -0.94 M0.26 -0.24 C21.25 -0.22, 105.61 0, 126.47 0.1" stroke="#1e1e1e" stroke-width="2" fill="none"></path></g><g transform="translate(564.80859375 160.8759765625) rotate(0 62.953125 0)"><path d="M102.95 8.57 C111.62 7.2, 116.94 3.09, 126.47 0.1 M102.95 8.57 C107.86 5.87, 114.52 4.32, 126.47 0.1" stroke="#1e1e1e" stroke-width="2" fill="none"></path></g><g transform="translate(564.80859375 160.8759765625) rotate(0 62.953125 0)"><path d="M103.01 -8.53 C111.63 -4.25, 116.93 -2.71, 126.47 0.1 M103.01 -8.53 C107.88 -7.01, 114.53 -4.34, 126.47 0.1" stroke="#1e1e1e" stroke-width="2" fill="none"></path></g></g><mask></mask><g stroke-linecap="round"><g transform="translate(908.66015625 157.2744140625) rotate(0 65.94140625 0)"><path d="M-0.4 0.23 C21.4 0.19, 109.75 -0.6, 131.67 -0.5 M1.59 -0.69 C23.14 -0.56, 108.61 0.84, 130.62 0.77" stroke="#1e1e1e" stroke-width="2" fill="none"></path></g><g transform="translate(908.66015625 157.2744140625) rotate(0 65.94140625 0)"><path d="M107.06 9.14 C116.25 5.75, 123.81 1.75, 130.62 0.77 M107.06 9.14 C116.5 6.3, 124.51 2.83, 130.62 0.77" stroke="#1e1e1e" stroke-width="2" fill="none"></path></g><g transform="translate(908.66015625 157.2744140625) rotate(0 65.94140625 0)"><path d="M107.19 -7.96 C116.3 -4.98, 123.81 -2.6, 130.62 0.77 M107.19 -7.96 C116.69 -4.52, 124.65 -1.72, 130.62 0.77" stroke="#1e1e1e" stroke-width="2" fill="none"></path></g></g><mask></mask><g stroke-linecap="round"><g transform="translate(809.7890625 327.0322265625) rotate(0 -174.703125 45.296875)"><path d="M0.18 1.15 C-28.39 16.33, -112.47 91.42, -170.75 91.07 C-229.03 90.72, -319.75 14.25, -349.51 -0.94 M-1.19 0.71 C-29.98 15.52, -113.53 89.33, -171.72 89.19 C-229.91 89.05, -320.78 14.58, -350.32 -0.12" stroke="#1e1e1e" stroke-width="2" fill="none"></path></g><g transform="translate(809.7890625 327.0322265625) rotate(0 -174.703125 45.296875)"><path d="M-325.9 5.24 C-332.67 3.3, -342.49 1.3, -350.32 -0.12 M-325.9 5.24 C-330.9 4.63, -337.57 2.54, -350.32 -0.12" stroke="#1e1e1e" stroke-width="2" fill="none"></path></g><g transform="translate(809.7890625 327.0322265625) rotate(0 -174.703125 45.296875)"><path d="M-335.06 19.68 C-338.57 12.59, -345.14 5.45, -350.32 -0.12 M-335.06 19.68 C-338.04 15.88, -342.69 10.6, -350.32 -0.12" stroke="#1e1e1e" stroke-width="2" fill="none"></path></g></g><mask></mask><g transform="translate(599.1259765625 365.7314453125) rotate(0 35.5615234375 11.5)"><text x="35.5615234375" y="18.400390625" font-family="Helvetica, Segoe UI Emoji" font-size="20px" fill="#1e1e1e" text-anchor="middle" style="white-space: pre;" direction="ltr" dominant-baseline="alphabetic">5秒左右</text></g></svg>